<svg width="67" height="61" viewBox="0 0 67 61" fill="none" xmlns="http://www.w3.org/2000/svg">
<path d="M39.1126 58.8709C33.3619 62.1824 26.0027 60.2241 22.6866 54.4704L1.61194 18.0124C-1.70413 12.2698 0.256924 4.92103 6.01863 1.60966C11.7693 -1.70171 19.1283 0.256518 22.4443 6.01015L43.5193 42.4682C46.8351 48.2108 44.8632 55.5597 39.1126 58.8709Z" fill="#EBEBEB"/>
<path d="M27.106 58.8709C32.8568 62.1824 40.2158 60.2241 43.5319 54.4704L64.6068 18.0124C67.9227 12.2698 65.9618 4.92103 60.2001 1.60966C54.4495 -1.70171 47.0903 0.256518 43.7742 6.01015L22.6993 42.4682C19.3834 48.2108 21.3553 55.5597 27.106 58.8709Z" fill="white"/>
</svg>
