<svg width="1920" height="1080" viewBox="0 0 1920 1080" fill="none" xmlns="http://www.w3.org/2000/svg">
<g clip-path="url(#clip0_763_31)">
<path d="M2018.9 526.741C2026.11 519.737 2031.72 511.253 2035.34 501.874C2038.96 492.495 2040.5 482.443 2039.86 472.411C2039.22 462.378 2036.41 452.604 2031.63 443.761C2026.85 434.918 2020.21 427.217 2012.16 421.187C1706.4 198.886 1337.95 79.4168 959.924 80.0021C566.823 80.0021 203.121 206.494 -92.3141 421.187C-100.368 427.206 -107.021 434.899 -111.815 443.736C-116.609 452.573 -119.431 462.345 -120.085 472.377C-120.739 482.41 -119.211 492.465 -115.605 501.85C-111.999 511.235 -106.402 519.727 -99.198 526.741C-86.6642 539.086 -70.156 546.583 -52.6124 547.896C-35.0688 549.209 -17.6285 544.253 -3.39661 533.912C277.001 331.551 614.132 222.888 959.924 223.417C1319.47 223.417 1652.19 338.437 1923.1 533.768C1952.5 554.994 1993.37 552.412 2018.9 526.741V526.741Z" fill="#8D1125"/>
<path d="M1709.84 835.944C1717.23 828.813 1722.94 820.127 1726.55 810.514C1730.16 800.902 1731.59 790.606 1730.72 780.373C1729.86 770.141 1726.72 760.231 1721.55 751.361C1716.37 742.492 1709.29 734.887 1700.81 729.099C1480.29 585.855 1222.88 509.818 959.923 510.247C686.717 510.247 432.155 590.56 219.039 729.099C210.514 734.853 203.386 742.444 198.179 751.315C192.973 760.186 189.821 770.11 188.954 780.359C188.087 790.608 189.528 800.921 193.171 810.54C196.814 820.159 202.566 828.84 210.004 835.944C222.224 847.87 238.134 855.289 255.125 856.982C272.116 858.676 289.178 854.545 303.511 845.266C499.42 719.785 727.274 653.276 959.923 653.663C1192.52 653.303 1420.32 719.812 1616.19 845.266C1645.73 864.196 1685.03 860.754 1709.84 835.944ZM1396.77 1149.02C1429.18 1116.61 1423.3 1062.25 1382.42 1041.46C1251.56 974.862 1106.76 940.26 959.923 940.493C807.903 940.493 664.2 976.921 537.421 1041.46C496.548 1062.25 490.668 1116.61 523.08 1149.02L525.231 1151.17C548.178 1174.12 583.601 1178.42 612.858 1164.08C720.882 1111.13 839.622 1083.71 959.923 1083.91C1084.41 1083.91 1202.29 1112.74 1306.99 1164.22C1336.1 1178.56 1371.52 1174.26 1394.47 1151.17L1396.77 1149.02Z" fill="#8D1125"/>
</g>
<defs>
<clipPath id="clip0_763_31">
<rect width="1920" height="1080" fill="white"/>
</clipPath>
</defs>
</svg>
