<svg width="2356" height="1215" viewBox="0 0 2356 1215" fill="none" xmlns="http://www.w3.org/2000/svg">
<path d="M1928.07 817.944C1935.46 810.813 1941.17 802.127 1944.78 792.514C1948.4 782.902 1949.82 772.606 1948.96 762.373C1948.09 752.141 1944.96 742.231 1939.78 733.361C1934.61 724.492 1927.52 716.887 1919.04 711.099C1698.52 567.855 1441.11 491.818 1178.16 492.247C904.949 492.247 650.387 572.56 437.272 711.099C428.746 716.853 421.618 724.444 416.412 733.315C411.205 742.186 408.053 752.11 407.186 762.359C406.32 772.608 407.761 782.921 411.403 792.54C415.046 802.159 420.798 810.84 428.237 817.944C440.456 829.87 456.367 837.289 473.357 838.982C490.348 840.676 507.41 836.545 521.743 827.266C717.652 701.785 945.507 635.276 1178.16 635.663C1410.76 635.303 1638.56 701.812 1834.42 827.266C1863.97 846.196 1903.26 842.754 1928.07 817.944Z" fill="#5A0B18"/>
</svg>
