<svg width="2356" height="1215" viewBox="0 0 2356 1215" fill="none" xmlns="http://www.w3.org/2000/svg">
<path d="M2237.13 508.741C2244.35 501.737 2249.95 493.253 2253.57 483.874C2257.19 474.495 2258.73 464.443 2258.09 454.411C2257.45 444.378 2254.64 434.604 2249.86 425.761C2245.08 416.918 2238.44 409.217 2230.39 403.187C1924.64 180.886 1556.19 61.4168 1178.16 62.0021C785.055 62.0021 421.354 188.494 125.918 403.187C117.865 409.206 111.212 416.899 106.417 425.736C101.623 434.573 98.8018 444.345 98.1475 454.377C97.4932 464.41 99.0216 474.465 102.627 483.85C106.233 493.235 111.831 501.727 119.034 508.741C131.568 521.086 148.076 528.583 165.62 529.896C183.164 531.209 200.604 526.253 214.836 515.912C495.233 313.551 832.364 204.888 1178.16 205.417C1537.7 205.417 1870.42 320.437 2141.33 515.768C2170.73 536.994 2211.61 534.412 2237.13 508.741V508.741Z" fill="#5A0B18"/>
</svg>
