<svg width="25" height="26" viewBox="0 0 25 26" fill="none" xmlns="http://www.w3.org/2000/svg">
<path d="M12.4966 8.66482C10.2014 8.66482 8.32828 10.6129 8.32828 13C8.32828 15.3871 10.2014 17.3352 12.4966 17.3352C14.7919 17.3352 16.665 15.3871 16.665 13C16.665 10.6129 14.7919 8.66482 12.4966 8.66482ZM24.9986 13C24.9986 11.2048 25.0142 9.42584 24.9173 7.63387C24.8204 5.55247 24.3638 3.70522 22.9004 2.18319C21.4338 0.657911 19.6607 0.186343 17.6594 0.0855244C15.9333 -0.0152937 14.2228 0.000967347 12.4998 0.000967347C10.7736 0.000967347 9.06313 -0.0152937 7.34013 0.0855244C5.33881 0.186343 3.56265 0.661163 2.09918 2.18319C0.632595 3.70847 0.179172 5.55247 0.0822335 7.63387C-0.0147052 9.42909 0.000930124 11.208 0.000930124 13C0.000930124 14.792 -0.0147052 16.5742 0.0822335 18.3661C0.179172 20.4475 0.635722 22.2948 2.09918 23.8168C3.56577 25.3421 5.33881 25.8137 7.34013 25.9145C9.06626 26.0153 10.7768 25.999 12.4998 25.999C14.2259 25.999 15.9364 26.0153 17.6594 25.9145C19.6607 25.8137 21.4369 25.3388 22.9004 23.8168C24.3669 22.2915 24.8204 20.4475 24.9173 18.3661C25.0174 16.5742 24.9986 14.7952 24.9986 13V13ZM12.4966 19.6703C8.94743 19.6703 6.08305 16.6912 6.08305 13C6.08305 9.30876 8.94743 6.32974 12.4966 6.32974C16.0458 6.32974 18.9102 9.30876 18.9102 13C18.9102 16.6912 16.0458 19.6703 12.4966 19.6703ZM19.1729 7.61436C18.3442 7.61436 17.675 6.91839 17.675 6.05656C17.675 5.19473 18.3442 4.49876 19.1729 4.49876C20.0016 4.49876 20.6708 5.19473 20.6708 6.05656C20.671 6.2612 20.6324 6.46389 20.5572 6.65301C20.4821 6.84212 20.3717 7.01396 20.2326 7.15866C20.0935 7.30337 19.9282 7.41811 19.7464 7.4963C19.5646 7.5745 19.3697 7.61462 19.1729 7.61436V7.61436Z" fill="black"/>
</svg>
