<svg width="25" height="26" viewBox="0 0 25 26" fill="none" xmlns="http://www.w3.org/2000/svg">
<path fill-rule="evenodd" clip-rule="evenodd" d="M3.09159e-07 2.17218C3.09159e-07 1.59609 0.220052 1.04358 0.611748 0.63622C1.00344 0.228857 1.5347 2.89582e-06 2.08864 2.89582e-06H22.9091C23.1836 -0.000463392 23.4555 0.0553863 23.7092 0.164354C23.963 0.273323 24.1936 0.433269 24.3878 0.635037C24.582 0.836804 24.736 1.07643 24.8411 1.3402C24.9462 1.60396 25.0001 1.88669 25 2.17218V23.8255C25.0003 24.111 24.9465 24.3938 24.8416 24.6577C24.7367 24.9216 24.5828 25.1614 24.3887 25.3634C24.1946 25.5653 23.9641 25.7255 23.7104 25.8348C23.4567 25.944 23.1848 26.0002 22.9102 26H2.08864C1.81426 26 1.54257 25.9438 1.28909 25.8345C1.03561 25.7253 0.805308 25.5652 0.611346 25.3634C0.417383 25.1615 0.263559 24.9219 0.158662 24.6583C0.0537651 24.3946 -0.000148972 24.112 3.09159e-07 23.8266V2.17218ZM9.89545 9.91309H13.2807V11.6811C13.7693 10.6647 15.0193 9.75 16.8977 9.75C20.4989 9.75 21.3523 11.7745 21.3523 15.4889V22.3695H17.708V16.3351C17.708 14.2196 17.2193 13.026 15.9784 13.026C14.2568 13.026 13.5409 14.313 13.5409 16.3351V22.3695H9.89545V9.91309ZM3.64545 22.2075H7.29091V9.75H3.64545V22.2064V22.2075ZM7.8125 5.68691C7.81937 6.01152 7.76383 6.3343 7.64914 6.63628C7.53444 6.93827 7.3629 7.21339 7.14458 7.4455C6.92626 7.6776 6.66557 7.86202 6.37779 7.98792C6.09001 8.11382 5.78095 8.17868 5.46875 8.17868C5.15655 8.17868 4.84749 8.11382 4.55971 7.98792C4.27193 7.86202 4.01124 7.6776 3.79292 7.4455C3.5746 7.21339 3.40306 6.93827 3.28836 6.63628C3.17367 6.3343 3.11813 6.01152 3.125 5.68691C3.13849 5.04974 3.39135 4.44339 3.82942 3.99772C4.26748 3.55205 4.85594 3.3025 5.46875 3.3025C6.08156 3.3025 6.67002 3.55205 7.10808 3.99772C7.54615 4.44339 7.79901 5.04974 7.8125 5.68691V5.68691Z" fill="black"/>
</svg>
