<svg width="62" height="42" viewBox="0 0 62 42" fill="none" xmlns="http://www.w3.org/2000/svg">
<path d="M5.43204 41.8532C2.42972 41.8532 0 39.4185 0 36.4212V5.43206C0 2.42974 2.4347 0 5.43204 0C8.43436 0 10.8641 2.43472 10.8641 5.43206V36.4212C10.8691 39.4185 8.43436 41.8532 5.43204 41.8532Z" fill="#FFFFFF"/>
<path d="M21.8715 34.1556C18.8692 34.1556 16.4395 31.7209 16.4395 28.7236V11.9096C16.4395 8.90728 18.8742 6.47754 21.8715 6.47754C24.8738 6.47754 27.3035 8.91226 27.3035 11.9096V28.7236C27.3085 31.7209 24.8738 34.1556 21.8715 34.1556Z" fill="#FFFFFF"/>
<path d="M49.257 33.4238C46.658 34.9225 43.332 34.0362 41.8333 31.4322L32.3086 14.9319C30.8099 12.3329 31.6962 9.00696 34.3002 7.50829C36.8992 6.00962 40.2251 6.89588 41.7238 9.49988L51.2486 26.0002C52.7472 28.5992 51.856 31.9252 49.257 33.4238Z" fill="#d3d3d3"/>
<path d="M43.8303 33.4238C46.4294 34.9225 49.7553 34.0362 51.254 31.4322L60.7788 14.9319C62.2774 12.3329 61.3912 9.00696 58.7872 7.50829C56.1882 6.00962 52.8622 6.89588 51.3635 9.49988L41.8387 26.0002C40.3401 28.5992 41.2313 31.9252 43.8303 33.4238Z" fill="#FFFFFF"/>
</svg> 