<svg width="150" height="150" viewBox="0 0 150 150" fill="none" xmlns="http://www.w3.org/2000/svg">
<path d="M99.0658 82.7682H51.8841C41.4713 82.7682 33 74.2969 33 63.8841C33 53.4714 41.4713 45 51.8841 45H99.0658C109.479 45 117.95 53.4714 117.95 63.8841C117.95 74.2969 109.479 82.7682 99.0658 82.7682ZM51.8841 48.178C43.2237 48.178 36.178 55.2237 36.178 63.8841C36.178 72.5445 43.2237 79.5902 51.8841 79.5902H99.0658C107.726 79.5902 114.772 72.5445 114.772 63.8841C114.772 55.2237 107.726 48.178 99.0658 48.178H51.8841V48.178Z" fill="white"/>
<path d="M94.6434 105.587H54.7188V104.081C54.7188 98.7672 59.0421 94.4438 64.3563 94.4438H85.006C90.3201 94.4438 94.6434 98.7672 94.6434 104.081V105.587ZM57.9033 102.575H91.4589C90.7752 99.645 88.1415 97.4558 85.006 97.4558H64.3563C61.2207 97.4558 58.587 99.645 57.9033 102.575Z" fill="white"/>
<path d="M74.6793 76.6083C67.6631 76.6083 61.9551 70.9002 61.9551 63.884C61.9551 56.8677 67.6631 51.1597 74.6793 51.1597C81.6955 51.1597 87.4037 56.8677 87.4037 63.884C87.4037 70.9002 81.6957 76.6083 74.6793 76.6083V76.6083ZM74.6793 54.1716C69.3239 54.1716 64.967 58.5286 64.967 63.884C64.967 69.2394 69.3239 73.5963 74.6793 73.5963C80.0348 73.5963 84.3918 69.2394 84.3918 63.884C84.3918 58.5286 80.0348 54.1716 74.6793 54.1716V54.1716Z" fill="white"/>
<path d="M74.6806 70.0038C71.306 70.0038 68.5605 67.2584 68.5605 63.8837C68.5605 60.509 71.306 57.7637 74.6806 57.7637C78.0552 57.7637 80.8008 60.5091 80.8008 63.8837C80.8008 67.2583 78.0553 70.0038 74.6806 70.0038ZM74.6806 60.7756C72.9667 60.7756 71.5725 62.1699 71.5725 63.8837C71.5725 65.5975 72.9667 66.9918 74.6806 66.9918C76.3944 66.9918 77.7888 65.5975 77.7888 63.8837C77.7888 62.1699 76.3944 60.7756 74.6806 60.7756Z" fill="white"/>
<path d="M81.8503 97.456H67.0469V79.6118H81.8503V97.456ZM70.0588 94.444H78.8384V82.6238H70.0588V94.444Z" fill="white"/>
</svg>
