<svg width="150" height="150" viewBox="0 0 150 150" fill="none" xmlns="http://www.w3.org/2000/svg">
<path d="M117.385 96.7095H110.026C110.995 95.45 111.523 93.906 111.528 92.3171V51.3208C111.526 49.3801 110.754 47.5192 109.382 46.1465C108.009 44.7745 106.148 44.0027 104.208 44H45.6416C43.7009 44.0026 41.84 44.7746 40.4674 46.1465C39.0954 47.5192 38.3235 49.3801 38.3208 51.3208V92.3171C38.3261 93.9061 38.8542 95.45 39.8229 96.7095H32.4642C31.6556 96.7095 31 97.3651 31 98.1737C31.0026 100.503 31.9288 102.736 33.5754 104.383C35.2226 106.03 37.456 106.956 39.7849 106.959H110.064C112.393 106.956 114.627 106.03 116.274 104.383C117.92 102.736 118.847 100.503 118.849 98.1737C118.849 97.7854 118.695 97.4128 118.42 97.1383C118.146 96.8638 117.773 96.7095 117.385 96.7095H117.385V96.7095ZM41.2492 51.3208C41.2492 50.156 41.712 49.0382 42.5356 48.2148C43.3592 47.3913 44.477 46.9284 45.6416 46.9284H104.208C105.372 46.9284 106.49 47.3912 107.314 48.2148C108.137 49.0383 108.6 50.1561 108.6 51.3208V92.3171C108.6 93.4818 108.137 94.5996 107.314 95.4231C106.49 96.2465 105.372 96.7094 104.208 96.7094H45.6416C44.4768 96.7094 43.359 96.2467 42.5356 95.4231C41.7121 94.5995 41.2492 93.4817 41.2492 92.3171L41.2492 51.3208H41.2492ZM110.064 104.03H39.7851C38.4869 104.029 37.226 103.597 36.1998 102.802C35.1736 102.007 34.4401 100.894 34.114 99.6378H115.735C115.409 100.894 114.676 102.007 113.649 102.802C112.623 103.597 111.362 104.029 110.064 104.03H110.064Z" fill="white"/>
<path d="M70.5325 51.3209H74.925C75.7335 51.3209 76.3891 50.6653 76.3891 49.8567C76.3891 49.0482 75.7335 48.3926 74.925 48.3926H70.5325C69.724 48.3926 69.0684 49.0482 69.0684 49.8567C69.0684 50.6653 69.724 51.3209 70.5325 51.3209Z" fill="white"/>
<path d="M80.7818 49.8567C80.7818 50.6653 80.1262 51.3209 79.3177 51.3209C78.5091 51.3209 77.8535 50.6653 77.8535 49.8567C77.8535 49.0482 78.5091 48.3926 79.3177 48.3926C80.1262 48.3926 80.7818 49.0482 80.7818 49.8567Z" fill="white"/>
</svg>
