<svg width="150" height="150" viewBox="0 0 150 150" fill="none" xmlns="http://www.w3.org/2000/svg">
<path d="M100.245 50.034V45.6415C100.245 45.2533 100.091 44.8807 99.8166 44.6062C99.542 44.3316 99.1695 44.1774 98.7812 44.1774V38.3208C98.7786 36.3801 98.0066 34.5192 96.6347 33.1465C95.262 31.7745 93.4012 31.0027 91.4604 31H56.3208C54.3801 31.0026 52.5192 31.7746 51.1465 33.1465C49.7745 34.5192 49.0027 36.3801 49 38.3208V111.528C49.0026 113.469 49.7746 115.33 51.1465 116.703C52.5192 118.075 54.3801 118.847 56.3208 118.849H91.4604C93.4012 118.847 95.262 118.075 96.6347 116.703C98.0067 115.33 98.7785 113.469 98.7812 111.528V69.068C99.1695 69.068 99.542 68.9137 99.8166 68.6392C100.091 68.3647 100.245 67.9921 100.245 67.6038V55.8906C100.245 55.5023 100.091 55.1298 99.8166 54.8552C99.542 54.5807 99.1695 54.4264 98.7812 54.4264V51.4981C99.1695 51.4981 99.542 51.3439 99.8166 51.0694C100.091 50.7948 100.245 50.4223 100.245 50.034ZM95.8529 111.528C95.8529 112.693 95.3901 113.811 94.5665 114.634C93.7429 115.458 92.6252 115.921 91.4605 115.921H56.3208C55.1561 115.921 54.0383 115.458 53.2148 114.634C52.3914 113.811 51.9285 112.693 51.9285 111.528V38.3208C51.9285 37.156 52.3912 36.0382 53.2148 35.2148C54.0384 34.3913 55.1562 33.9284 56.3208 33.9284H91.4605C92.6253 33.9284 93.7431 34.3912 94.5665 35.2148C95.39 36.0383 95.8529 37.1561 95.8529 38.3208V111.528Z" fill="white"/>
<path d="M73.8898 35.3926H69.4974C68.6888 35.3926 68.0332 36.0482 68.0332 36.8567C68.0332 37.6653 68.6888 38.3209 69.4974 38.3209H73.8898C74.6984 38.3209 75.354 37.6653 75.354 36.8567C75.354 36.0482 74.6984 35.3926 73.8898 35.3926Z" fill="white"/>
<path d="M79.7486 36.8567C79.7486 37.6653 79.093 38.3209 78.2845 38.3209C77.4759 38.3209 76.8203 37.6653 76.8203 36.8567C76.8203 36.0482 77.4759 35.3926 78.2845 35.3926C79.093 35.3926 79.7486 36.0482 79.7486 36.8567Z" fill="white"/>
</svg>
