<svg width="150" height="150" viewBox="0 0 150 150" fill="none" xmlns="http://www.w3.org/2000/svg">
<path d="M84.3546 58.8188V35.3924C84.3546 34.2276 83.8918 33.1098 83.0682 32.2864C82.2446 31.4629 81.1268 31 79.9622 31H71.1773C70.0125 31 68.8947 31.4628 68.0713 32.2864C67.2478 33.11 66.7849 34.2277 66.7849 35.3924V58.8188C65.094 58.8221 63.4553 59.4097 62.148 60.4823C60.8401 61.555 59.9439 63.0465 59.6106 64.7048C59.5622 64.6917 59.5138 64.6819 59.4642 64.6754C58.6556 64.6754 58 65.331 58 66.1395V69.0678C58 69.4561 58.1543 69.8287 58.4288 70.1032C58.7033 70.3777 59.0759 70.532 59.4642 70.532V71.9961C58.6556 71.9961 58 72.6518 58 73.4603V76.3886C58 76.7769 58.1543 77.1495 58.4288 77.424C58.7033 77.6985 59.0759 77.8528 59.4642 77.8528V83.7094C59.4668 85.6501 60.2387 87.511 61.6107 88.8836C62.9833 90.2556 64.8442 91.0275 66.7849 91.0301V114.457C66.7849 115.621 67.2477 116.739 68.0713 117.563C68.8949 118.386 70.0127 118.849 71.1773 118.849H79.9622C81.127 118.849 82.2448 118.386 83.0682 117.563C83.8917 116.739 84.3546 115.621 84.3546 114.457V91.0301C86.2953 91.0275 88.1562 90.2556 89.5288 88.8836C90.9008 87.511 91.6727 85.6501 91.6754 83.7094V66.1395C91.6727 64.1988 90.9008 62.3379 89.5288 60.9653C88.1562 59.5933 86.2953 58.8214 84.3546 58.8188V58.8188V58.8188ZM69.7131 35.3924C69.7131 34.5838 70.3687 33.9282 71.1772 33.9282H79.9621C80.3504 33.9282 80.723 34.0825 80.9975 34.357C81.272 34.6315 81.4263 35.0041 81.4263 35.3924V58.8188H69.7131V35.3924ZM81.4263 114.457C81.4263 114.845 81.272 115.217 80.9975 115.492C80.723 115.767 80.3504 115.921 79.9621 115.921H71.1772C70.3687 115.921 69.7131 115.265 69.7131 114.457V91.0302H81.4263V114.457ZM88.7471 83.7094C88.7471 84.8742 88.2843 85.992 87.4607 86.8155C86.6371 87.6389 85.5193 88.1018 84.3547 88.1018H66.7848C65.6201 88.1018 64.5023 87.639 63.6788 86.8155C62.8554 85.9919 62.3925 84.8741 62.3925 83.7094V66.1396C62.3925 64.9748 62.8552 63.857 63.6788 63.0336C64.5024 62.2101 65.6202 61.7472 66.7848 61.7472H84.3547C85.5195 61.7472 86.6372 62.21 87.4607 63.0336C88.2841 63.8572 88.7471 64.975 88.7471 66.1396V83.7094Z" fill="white"/>
</svg>
