<svg xmlns="http://www.w3.org/2000/svg" version="1.1" xmlns:xlink="http://www.w3.org/1999/xlink" xmlns:svgjs="http://svgjs.dev/svgjs" width="1000" height="1000"><g clip-path="url(#SvgjsClipPath1220)"><rect width="1000" height="1000" fill="#ffffff"></rect><g transform="matrix(1.953125,0,0,1.953125,0,0)"><svg xmlns="http://www.w3.org/2000/svg" version="1.1" xmlns:xlink="http://www.w3.org/1999/xlink" xmlns:svgjs="http://svgjs.dev/svgjs" width="512" height="512"><svg width="512" height="512" viewBox="0 0 512 512" fill="none" xmlns="http://www.w3.org/2000/svg">
<g clip-path="url(#clip0_13703_24112)">
<path d="M512 0H0V512H512V0Z" fill="black"></path>
<path fill-rule="evenodd" clip-rule="evenodd" d="M262.859 426.179V66.0391H243.859V445.179H511.999V426.179H262.859Z" fill="white"></path>
<path fill-rule="evenodd" clip-rule="evenodd" d="M255.36 139.461C190.445 139.461 137.82 192.085 137.82 257.001C137.82 321.916 190.445 374.541 255.36 374.541C320.276 374.541 372.9 321.916 372.9 257.001C372.9 192.085 320.276 139.461 255.36 139.461ZM118.82 257.001C118.82 181.592 179.951 120.461 255.36 120.461C330.769 120.461 391.9 181.592 391.9 257.001C391.9 332.41 330.769 393.541 255.36 393.541C179.951 393.541 118.82 332.41 118.82 257.001Z" fill="white"></path>
</g>
<defs>
<clipPath id="clip0_13703_24112">
<rect width="512" height="512" fill="white"></rect>
</clipPath>
<clipPath id="SvgjsClipPath1220"><rect width="1000" height="1000" x="0" y="0" rx="500" ry="500"></rect></clipPath></defs>
</svg></svg></g></g></svg>