<svg width="150" height="151" viewBox="0 0 150 151" fill="none" xmlns="http://www.w3.org/2000/svg">
<g filter="url(#filter0_f_922_6476)">
<circle cx="75.1066" cy="75.2975" r="55.4913" fill="black" fill-opacity="0.6"/>
</g>
<circle cx="74.8428" cy="75.0342" r="67.203" stroke="white" stroke-width="2.58827"/>
<circle cx="75" cy="75.1909" r="73.7059" stroke="white" stroke-width="2.58827" stroke-miterlimit="2.50986" stroke-dasharray="57.8 57.8"/>
<path d="M100.861 50.3787V45.9863C100.861 45.598 100.706 45.2254 100.432 44.9509C100.157 44.6764 99.7847 44.5221 99.3964 44.5221V38.6655C99.3938 36.7248 98.6219 34.8639 97.2499 33.4913C95.8773 32.1193 94.0164 31.3474 92.0757 31.3447H56.936C54.9953 31.3473 53.1344 32.1193 51.7618 33.4913C50.3898 34.8639 49.6179 36.7248 49.6152 38.6655V111.873C49.6178 113.814 50.3898 115.675 51.7618 117.047C53.1344 118.419 54.9953 119.191 56.936 119.194H92.0757C94.0164 119.191 95.8773 118.419 97.2499 117.047C98.6219 115.675 99.3938 113.814 99.3964 111.873V69.4127C99.7847 69.4127 100.157 69.2584 100.432 68.9839C100.706 68.7094 100.861 68.3368 100.861 67.9486V56.2353C100.861 55.8471 100.706 55.4745 100.432 55.2C100.157 54.9254 99.7847 54.7712 99.3964 54.7712V51.8429C99.7847 51.8429 100.157 51.6886 100.432 51.4141C100.706 51.1396 100.861 50.767 100.861 50.3787ZM96.4681 111.873C96.4681 113.038 96.0054 114.156 95.1818 114.979C94.3582 115.803 93.2404 116.266 92.0758 116.266H56.9361C55.7713 116.266 54.6535 115.803 53.8301 114.979C53.0066 114.156 52.5437 113.038 52.5437 111.873V38.6655C52.5437 37.5007 53.0065 36.3829 53.8301 35.5595C54.6537 34.736 55.7715 34.2731 56.9361 34.2731H92.0758C93.2405 34.2731 94.3583 34.7359 95.1818 35.5595C96.0052 36.3831 96.4681 37.5009 96.4681 38.6655V111.873Z" fill="white"/>
<path d="M74.505 35.7373H70.1126C69.304 35.7373 68.6484 36.3929 68.6484 37.2015C68.6484 38.01 69.304 38.6656 70.1126 38.6656H74.505C75.3136 38.6656 75.9692 38.01 75.9692 37.2015C75.9692 36.3929 75.3136 35.7373 74.505 35.7373Z" fill="white"/>
<path d="M80.3639 37.2015C80.3639 38.01 79.7082 38.6656 78.8997 38.6656C78.0912 38.6656 77.4355 38.01 77.4355 37.2015C77.4355 36.3929 78.0912 35.7373 78.8997 35.7373C79.7082 35.7373 80.3639 36.3929 80.3639 37.2015Z" fill="white"/>
<defs>
<filter id="filter0_f_922_6476" x="1.49735" y="1.68827" width="147.218" height="147.218" filterUnits="userSpaceOnUse" color-interpolation-filters="sRGB">
<feFlood flood-opacity="0" result="BackgroundImageFix"/>
<feBlend mode="normal" in="SourceGraphic" in2="BackgroundImageFix" result="shape"/>
<feGaussianBlur stdDeviation="9.05894" result="effect1_foregroundBlur_922_6476"/>
</filter>
</defs>
</svg>
