<svg width="83" height="131" viewBox="0 0 83 131" fill="none" xmlns="http://www.w3.org/2000/svg">
<path d="M65.4775 10.4867C67.4355 10.4867 69.3134 11.2645 70.6979 12.649C72.0824 14.0335 72.8602 15.9114 72.8602 17.8694V113.086C72.8602 115.044 72.0824 116.921 70.6979 118.306C69.3134 119.691 67.4355 120.468 65.4775 120.468H17.8694C15.9114 120.468 14.0335 119.691 12.649 118.306C11.2645 116.921 10.4867 115.044 10.4867 113.086V17.8694C10.4867 15.9114 11.2645 14.0335 12.649 12.649C14.0335 11.2645 15.9114 10.4867 17.8694 10.4867H65.4775ZM17.8694 1.44802C13.5142 1.44802 9.33733 3.17812 6.25773 6.25773C3.17812 9.33733 1.44802 13.5142 1.44802 17.8694V113.086C1.44802 117.441 3.17812 121.618 6.25773 124.697C9.33733 127.777 13.5142 129.507 17.8694 129.507H65.4775C69.8327 129.507 74.0096 127.777 77.0892 124.697C80.1688 121.618 81.8989 117.441 81.8989 113.086V17.8694C81.8989 13.5142 80.1688 9.33733 77.0892 6.25773C74.0096 3.17812 69.8327 1.44802 65.4775 1.44802H17.8694Z" fill="white" stroke="white" stroke-width="1.10396"/>
<path d="M41.673 113.638C43.9238 113.638 46.0824 112.744 47.674 111.152C49.2655 109.56 50.1596 107.402 50.1596 105.151C50.1596 102.9 49.2655 100.742 47.674 99.15C46.0824 97.5585 43.9238 96.6643 41.673 96.6643C39.4222 96.6643 37.2636 97.5585 35.672 99.15C34.0804 100.742 33.1863 102.9 33.1863 105.151C33.1863 107.402 34.0804 109.56 35.672 111.152C37.2636 112.744 39.4222 113.638 41.673 113.638Z" fill="white" stroke="white" stroke-width="1.10396"/>
</svg>
