<svg width="83" height="111" viewBox="0 0 83 111" fill="none" xmlns="http://www.w3.org/2000/svg">
<path fill-rule="evenodd" clip-rule="evenodd" d="M66.2209 16.7528C66.2209 17.0177 66.2153 17.2827 66.1988 17.5421C69.4373 18.6789 72.2427 20.7936 74.2272 23.594C76.2117 26.3943 77.2774 29.7419 77.277 33.1741V38.6939H82.7968V60.773H77.277V77.3324C77.2768 80.7616 76.2119 84.1061 74.2295 86.9043C72.2471 89.7024 69.4449 91.816 66.2098 92.9534C66.3375 95.2033 66.0046 97.4556 65.2316 99.5724C64.4585 101.689 63.2615 103.626 61.7138 105.264C60.1662 106.902 58.3005 108.207 56.2309 109.099C54.1614 109.991 51.9316 110.451 49.6781 110.451H27.5989C25.3454 110.451 23.1156 109.991 21.046 109.099C18.9765 108.207 17.1108 106.902 15.5632 105.264C14.0155 103.626 12.8185 101.689 12.0454 99.5724C11.2723 97.4556 10.9395 95.2033 11.0672 92.9534C7.83252 91.8153 5.03077 89.7015 3.04847 86.9035C1.06617 84.1056 0.00102668 80.7614 2.43175e-07 77.3324V33.1741C-0.000587051 29.7463 1.06263 26.4027 3.04295 23.6047C5.02327 20.8068 7.8231 18.6923 11.0561 17.5531C10.9202 15.2918 11.2497 13.0265 12.0243 10.8976C12.7988 8.76865 14.002 6.82129 15.5594 5.17599C17.1167 3.53069 18.9951 2.22244 21.0783 1.33218C23.1615 0.441919 25.4052 -0.0114165 27.6707 0.000218408L49.7498 0.110615C54.1407 0.133978 58.3425 1.9003 61.4313 5.02117C64.5201 8.14203 66.2429 12.3619 66.2209 16.7528V16.7528ZM22.0626 16.6148H55.1813C55.1668 15.1652 54.5827 13.7795 53.555 12.757C52.5274 11.7345 51.1387 11.1574 49.6891 11.1502L27.61 11.0398C26.147 11.0339 24.7415 11.6091 23.7023 12.6389C22.6632 13.6687 22.0754 15.069 22.0681 16.532V16.6148H22.0626ZM61.8492 27.7703L38.5557 27.6543H16.5594C15.0954 27.6543 13.6914 28.2359 12.6563 29.271C11.6211 30.3062 11.0396 31.7102 11.0396 33.1741V77.3324C11.0396 78.7954 11.6204 80.1985 12.6543 81.2335C13.6883 82.2685 15.0909 82.8507 16.5538 82.8522H60.7176C62.1806 82.8507 63.5832 82.2685 64.6171 81.2335C65.6511 80.1985 66.2319 78.7954 66.2319 77.3324V33.1741C66.2322 31.9065 65.7961 30.6773 64.997 29.6932C64.1979 28.7092 63.0844 28.0301 61.8437 27.7703H61.8492ZM22.0791 93.8917C22.0791 95.3557 22.6607 96.7597 23.6958 97.7948C24.731 98.83 26.135 99.4115 27.5989 99.4115H49.6781C51.142 99.4115 52.546 98.83 53.5811 97.7948C54.6163 96.7597 55.1978 95.3557 55.1978 93.8917H22.0791Z" fill="white"/>
</svg>
