<svg width="151" height="151" viewBox="0 0 151 151" fill="none" xmlns="http://www.w3.org/2000/svg">
<g filter="url(#filter0_f_922_6493)">
<circle cx="75.4542" cy="75.2975" r="55.4913" fill="black" fill-opacity="0.6"/>
</g>
<circle cx="75.1905" cy="75.0342" r="67.203" stroke="white" stroke-width="2.58827"/>
<circle cx="75.3477" cy="75.1909" r="73.7059" stroke="white" stroke-width="2.58827" stroke-miterlimit="2.50986" stroke-dasharray="57.8 57.8"/>
<path d="M84.104 111.129C82.5715 111.132 81.1007 110.526 80.0164 109.443C78.9318 108.361 78.3223 106.891 78.3223 105.358V57.8503C78.3223 57.2268 78.8279 56.7212 79.4514 56.7212C80.0749 56.7212 80.5805 57.2268 80.5805 57.8503C80.5816 60.8521 81.3888 63.7981 82.9186 66.381C84.4484 68.9633 86.644 71.0876 89.2761 72.5307C89.6345 72.7321 89.8552 73.113 89.852 73.5243V105.358C89.8546 106.885 89.251 108.351 88.1733 109.434C87.095 110.516 85.6311 111.126 84.104 111.129V111.129H84.104ZM80.5468 66.8397V105.358C80.4922 106.323 80.8372 107.267 81.5003 107.969C82.1639 108.671 83.0874 109.069 84.0531 109.069C85.0189 109.069 85.9423 108.671 86.606 107.969C87.2691 107.267 87.614 106.323 87.5594 105.358V74.1785C84.6 72.4125 82.1762 69.8752 80.5467 66.8387L80.5468 66.8397V66.8397Z" fill="white"/>
<path d="M97.2941 76.8563C91.3758 76.8649 85.7917 74.1166 82.1885 69.4222C78.5853 64.7273 77.3747 58.622 78.9141 52.9069C80.4531 47.1927 84.5668 42.5214 90.0405 40.2716C95.5142 38.0218 101.723 38.4504 106.837 41.4307C108.577 42.4704 109.641 44.3499 109.637 46.3768V69.3465C109.646 71.375 108.58 73.2562 106.837 74.2925C103.938 75.9745 100.646 76.8588 97.2944 76.8561L97.2941 76.8563V76.8563ZM97.2941 41.1149C96.6605 41.1144 96.0273 41.1481 95.3969 41.2167C91.642 41.6446 88.1416 43.3266 85.4612 45.9902C82.7809 48.6546 81.077 52.1448 80.6265 55.8969C80.0577 60.6491 81.5687 65.4158 84.7708 68.9735C87.945 72.5483 92.4911 74.6015 97.2716 74.6197C100.223 74.6272 103.124 73.8479 105.673 72.3614C106.199 72.054 106.633 71.6132 106.933 71.0839C107.232 70.5542 107.386 69.9548 107.379 69.3463V46.3766C107.39 45.1511 106.755 44.0096 105.707 43.3728C103.154 41.8843 100.25 41.1043 97.2942 41.1145L97.2941 41.1149V41.1149Z" fill="white"/>
<path d="M66.0933 111.13C64.5624 111.13 63.0948 110.522 62.0127 109.439C60.9302 108.357 60.3223 106.89 60.3223 105.359V73.5253C60.3212 73.1118 60.5467 72.7304 60.9099 72.5317C63.5383 71.0854 65.7301 68.96 67.2578 66.3782C68.7849 63.7959 69.5916 60.8514 69.5937 57.8513C69.5937 57.2278 70.0993 56.7222 70.7228 56.7222C71.3469 56.7222 71.8525 57.2278 71.8525 57.8513V105.359C71.8525 106.888 71.2456 108.354 70.1663 109.436C69.0864 110.518 67.6214 111.127 66.0933 111.13L66.0933 111.13V111.13ZM62.5811 74.1802V105.36C62.5265 106.324 62.8714 107.269 63.5346 107.971C64.1982 108.673 65.1216 109.071 66.0874 109.071C67.0532 109.071 67.9766 108.673 68.6402 107.971C69.3034 107.269 69.6483 106.324 69.5937 105.36V66.8413C67.9642 69.8779 65.5404 72.4152 62.581 74.1812L62.5811 74.1802V74.1802Z" fill="white"/>
<path d="M52.8468 76.8559C49.4942 76.8548 46.2021 75.9667 43.3043 74.2811C41.564 73.2468 40.4991 71.3704 40.5039 69.3463V46.3766C40.4996 44.3497 41.564 42.4702 43.3043 41.4305C48.4143 38.4668 54.6122 38.0496 60.0732 40.3014C65.5346 42.5527 69.6376 47.2171 71.1738 52.921C72.71 58.6251 71.5054 64.7191 67.914 69.4089C64.3226 74.0987 58.7534 76.851 52.8468 76.8554V76.8559H52.8468ZM44.4451 43.3729C43.3899 44.0039 42.7488 45.1474 42.7622 46.3767V69.3464C42.751 70.572 43.3916 71.7118 44.4451 72.339C46.9954 73.8238 49.8953 74.6032 52.8468 74.5973C57.6273 74.5791 62.1734 72.5255 65.3476 68.9511C68.5497 65.3934 70.0607 60.6267 69.4919 55.8745C68.832 50.2712 65.3931 45.378 60.3453 42.8589C55.2969 40.3393 49.3196 40.5326 44.4457 43.3731L44.4451 43.3729V43.3729Z" fill="white"/>
<path d="M93.9623 58.98H86.5881C85.9646 58.98 85.459 58.4743 85.459 57.8508C85.459 57.2273 85.9646 56.7217 86.5881 56.7217H93.9623C94.5857 56.7217 95.0914 57.2273 95.0914 57.8508C95.0914 58.4743 94.5857 58.98 93.9623 58.98Z" fill="white"/>
<path d="M63.5521 58.98H56.178C55.5545 58.98 55.0488 58.4743 55.0488 57.8508C55.0488 57.2273 55.5545 56.7217 56.178 56.7217H63.5521C64.1756 56.7217 64.6812 57.2273 64.6812 57.8508C64.6812 58.4743 64.1756 58.98 63.5521 58.98Z" fill="white"/>
<defs>
<filter id="filter0_f_922_6493" x="1.84501" y="1.68827" width="147.218" height="147.218" filterUnits="userSpaceOnUse" color-interpolation-filters="sRGB">
<feFlood flood-opacity="0" result="BackgroundImageFix"/>
<feBlend mode="normal" in="SourceGraphic" in2="BackgroundImageFix" result="shape"/>
<feGaussianBlur stdDeviation="9.05894" result="effect1_foregroundBlur_922_6493"/>
</filter>
</defs>
</svg>
