<svg width="151" height="151" viewBox="0 0 151 151" fill="none" xmlns="http://www.w3.org/2000/svg">
<g filter="url(#filter0_f_922_6467)">
<circle cx="75.1515" cy="75.2975" r="55.4913" fill="black" fill-opacity="0.6"/>
</g>
<circle cx="74.8877" cy="75.0342" r="67.203" stroke="white" stroke-width="2.58827"/>
<circle cx="75.0449" cy="75.1909" r="73.7059" stroke="white" stroke-width="2.58827" stroke-miterlimit="2.50986" stroke-dasharray="57.8 57.8"/>
<path d="M117.582 96.1695H110.224C111.192 94.9099 111.721 93.366 111.726 91.777V50.7807C111.723 48.84 110.951 46.9791 109.579 45.6065C108.207 44.2345 106.346 43.4626 104.405 43.46H45.8389C43.8982 43.4626 42.0373 44.2345 40.6646 45.6065C39.2926 46.9791 38.5208 48.84 38.5181 50.7807V91.777C38.5233 93.366 39.0515 94.91 40.0202 96.1695H32.6614C31.8529 96.1695 31.1973 96.8251 31.1973 97.6336C31.1999 99.9626 32.1261 102.196 33.7727 103.843C35.4198 105.49 37.6533 106.416 39.9822 106.419H110.262C112.59 106.416 114.824 105.49 116.471 103.843C118.118 102.196 119.044 99.9626 119.046 97.6336C119.046 97.2454 118.892 96.8728 118.618 96.5983C118.343 96.3237 117.971 96.1695 117.582 96.1695H117.582V96.1695ZM41.4465 50.7807C41.4465 49.6159 41.9092 48.4982 42.7328 47.6747C43.5564 46.8513 44.6742 46.3884 45.8388 46.3884H104.405C105.57 46.3884 106.688 46.8511 107.511 47.6747C108.334 48.4983 108.797 49.6161 108.797 50.7807V91.777C108.797 92.9418 108.335 94.0596 107.511 94.883C106.687 95.7065 105.57 96.1694 104.405 96.1694H45.8388C44.6741 96.1694 43.5563 95.7066 42.7328 94.883C41.9094 94.0594 41.4465 92.9416 41.4465 91.777L41.4465 50.7807H41.4465ZM110.262 103.49H39.9823C38.6842 103.489 37.4233 103.057 36.3971 102.262C35.3709 101.467 34.6374 100.354 34.3113 99.0978H115.932C115.606 100.354 114.873 101.467 113.847 102.262C112.82 103.057 111.559 103.489 110.261 103.49H110.262Z" fill="white"/>
<path d="M70.7298 50.7808H75.1222C75.9308 50.7808 76.5864 50.1252 76.5864 49.3167C76.5864 48.5081 75.9308 47.8525 75.1222 47.8525H70.7298C69.9212 47.8525 69.2656 48.5081 69.2656 49.3167C69.2656 50.1252 69.9212 50.7808 70.7298 50.7808Z" fill="white"/>
<path d="M80.9791 49.3167C80.9791 50.1252 80.3235 50.7808 79.5149 50.7808C78.7064 50.7808 78.0508 50.1252 78.0508 49.3167C78.0508 48.5081 78.7064 47.8525 79.5149 47.8525C80.3235 47.8525 80.9791 48.5081 80.9791 49.3167Z" fill="white"/>
<defs>
<filter id="filter0_f_922_6467" x="1.54227" y="1.68827" width="147.218" height="147.218" filterUnits="userSpaceOnUse" color-interpolation-filters="sRGB">
<feFlood flood-opacity="0" result="BackgroundImageFix"/>
<feBlend mode="normal" in="SourceGraphic" in2="BackgroundImageFix" result="shape"/>
<feGaussianBlur stdDeviation="9.05894" result="effect1_foregroundBlur_922_6467"/>
</filter>
</defs>
</svg>
