<svg width="155" height="111" viewBox="0 0 155 111" fill="none" xmlns="http://www.w3.org/2000/svg">
<path d="M150.9 43.794L108.221 28.4545L90.381 6.05523C88.8297 4.15865 86.8757 2.63125 84.6607 1.58388C82.4457 0.536521 80.0252 -0.00452098 77.5751 2.84545e-05H33.4389C30.7395 -0.000877819 28.0809 0.658562 25.6949 1.92085C23.3089 3.18313 21.2678 5.00994 19.7498 7.24199L4.78014 29.2273C1.66231 33.8028 -0.00356393 39.2121 5.72485e-06 44.7489V88.3166C5.72485e-06 89.7805 0.581553 91.1845 1.61671 92.2197C2.65187 93.2548 4.05585 93.8364 5.51979 93.8364H17.3432C18.5439 98.5737 21.29 102.775 25.1469 105.777C29.0038 108.778 33.7514 110.407 38.6385 110.407C43.5256 110.407 48.2732 108.778 52.1301 105.777C55.987 102.775 58.7331 98.5737 59.9338 93.8364H94.6202C95.8209 98.5737 98.567 102.775 102.424 105.777C106.281 108.778 111.028 110.407 115.915 110.407C120.803 110.407 125.55 108.778 129.407 105.777C133.264 102.775 136.01 98.5737 137.211 93.8364H149.034C150.498 93.8364 151.902 93.2548 152.937 92.2197C153.972 91.1845 154.554 89.7805 154.554 88.3166V48.9881C154.554 47.8515 154.203 46.7426 153.549 45.8129C152.895 44.8833 151.97 44.1782 150.9 43.794ZM38.6385 99.3562C36.4551 99.3562 34.3207 98.7087 32.5052 97.4956C30.6898 96.2826 29.2748 94.5585 28.4393 92.5412C27.6037 90.524 27.3851 88.3043 27.811 86.1629C28.237 84.0214 29.2884 82.0543 30.8323 80.5104C32.3763 78.9665 34.3433 77.9151 36.4848 77.4891C38.6263 77.0632 40.8459 77.2818 42.8632 78.1173C44.8804 78.9529 46.6045 80.3679 47.8176 82.1833C49.0306 83.9988 49.6781 86.1332 49.6781 88.3166C49.6737 91.2431 48.5092 94.0485 46.4398 96.1179C44.3704 98.1873 41.565 99.3518 38.6385 99.3562V99.3562ZM115.915 99.3562C113.732 99.3562 111.598 98.7087 109.782 97.4956C107.967 96.2826 106.552 94.5585 105.716 92.5412C104.881 90.524 104.662 88.3043 105.088 86.1629C105.514 84.0214 106.565 82.0543 108.109 80.5104C109.653 78.9665 111.62 77.9151 113.762 77.4891C115.903 77.0632 118.123 77.2818 120.14 78.1173C122.157 78.9529 123.882 80.3679 125.095 82.1833C126.308 83.9988 126.955 86.1332 126.955 88.3166C126.952 91.2436 125.788 94.0498 123.718 96.1195C121.649 98.1892 118.842 99.3532 115.915 99.3562ZM143.514 82.7968H137.211C136.01 78.0595 133.264 73.8578 129.407 70.8566C125.55 67.8553 120.803 66.2257 115.915 66.2257C111.028 66.2257 106.281 67.8553 102.424 70.8566C98.567 73.8578 95.8209 78.0595 94.6202 82.7968H59.9338C58.7331 78.0595 55.987 73.8578 52.1301 70.8566C48.2732 67.8553 43.5256 66.2257 38.6385 66.2257C33.7514 66.2257 29.0038 67.8553 25.1469 70.8566C21.29 73.8578 18.5439 78.0595 17.3432 82.7968H11.0396V44.7489C11.039 41.4254 12.0392 38.1786 13.9099 35.4315L28.874 13.4573C29.38 12.7125 30.0605 12.1029 30.8562 11.6815C31.6518 11.2601 32.5385 11.0397 33.4389 11.0396H77.5751C78.3782 11.0364 79.1722 11.2098 79.901 11.5475C80.6297 11.8851 81.2753 12.3788 81.7922 12.9936L100.559 36.5576C101.198 37.3587 102.046 37.9665 103.01 38.3129L143.514 52.8685V82.7968Z" fill="white"/>
</svg>
