<svg width="151" height="151" viewBox="0 0 151 151" fill="none" xmlns="http://www.w3.org/2000/svg">
<g filter="url(#filter0_f_922_6486)">
<circle cx="75.4542" cy="75.2975" r="55.4913" fill="black" fill-opacity="0.6"/>
</g>
<circle cx="75.1905" cy="75.0342" r="67.203" stroke="white" stroke-width="2.58827"/>
<circle cx="75.3477" cy="75.1909" r="73.7059" stroke="white" stroke-width="2.58827" stroke-miterlimit="2.50986" stroke-dasharray="57.8 57.8"/>
<path d="M84.9698 55.7021V32.2757C84.9698 31.1109 84.5071 29.9931 83.6835 29.1697C82.8599 28.3462 81.7421 27.8833 80.5775 27.8833H71.7925C70.6278 27.8833 69.51 28.3461 68.6865 29.1697C67.8631 29.9933 67.4002 31.111 67.4002 32.2757V55.7021C65.7093 55.7054 64.0706 56.293 62.7632 57.3656C61.4553 58.4383 60.5591 59.9298 60.2258 61.5881C60.1774 61.575 60.1291 61.5652 60.0794 61.5587C59.2708 61.5587 58.6152 62.2143 58.6152 63.0228V65.9511C58.6152 66.3394 58.7695 66.712 59.044 66.9865C59.3186 67.261 59.6911 67.4153 60.0794 67.4153V68.8794C59.2708 68.8794 58.6152 69.5351 58.6152 70.3436V73.2719C58.6152 73.6602 58.7695 74.0328 59.044 74.3073C59.3186 74.5818 59.6911 74.7361 60.0794 74.7361V80.5927C60.082 82.5334 60.854 84.3943 62.2259 85.7669C63.5986 87.1389 65.4594 87.9108 67.4002 87.9134V111.34C67.4002 112.505 67.8629 113.622 68.6865 114.446C69.5101 115.269 70.6279 115.732 71.7925 115.732H80.5775C81.7422 115.732 82.86 115.269 83.6835 114.446C84.5069 113.622 84.9698 112.505 84.9698 111.34V87.9134C86.9105 87.9108 88.7714 87.1389 90.1441 85.7669C91.516 84.3943 92.2879 82.5334 92.2906 80.5927V63.0228C92.288 61.0821 91.516 59.2212 90.1441 57.8486C88.7714 56.4766 86.9105 55.7047 84.9698 55.7021V55.7021V55.7021ZM70.3283 32.2757C70.3283 31.4671 70.9839 30.8115 71.7925 30.8115H80.5774C80.9656 30.8115 81.3382 30.9658 81.6127 31.2403C81.8873 31.5148 82.0415 31.8874 82.0415 32.2757V55.7021H70.3283V32.2757ZM82.0415 111.34C82.0415 111.728 81.8873 112.101 81.6127 112.375C81.3382 112.65 80.9656 112.804 80.5774 112.804H71.7925C70.9839 112.804 70.3283 112.148 70.3283 111.34V87.9135H82.0415V111.34ZM89.3623 80.5927C89.3623 81.7575 88.8995 82.8753 88.0759 83.6988C87.2523 84.5222 86.1345 84.9851 84.9699 84.9851H67.4001C66.2353 84.9851 65.1175 84.5223 64.2941 83.6988C63.4706 82.8752 63.0077 81.7574 63.0077 80.5927V63.0229C63.0077 61.8581 63.4705 60.7403 64.2941 59.9169C65.1176 59.0934 66.2354 58.6305 67.4001 58.6305H84.9699C86.1347 58.6305 87.2525 59.0933 88.0759 59.9169C88.8994 60.7405 89.3623 61.8583 89.3623 63.0229V80.5927Z" fill="white"/>
<defs>
<filter id="filter0_f_922_6486" x="1.84501" y="1.68827" width="147.218" height="147.218" filterUnits="userSpaceOnUse" color-interpolation-filters="sRGB">
<feFlood flood-opacity="0" result="BackgroundImageFix"/>
<feBlend mode="normal" in="SourceGraphic" in2="BackgroundImageFix" result="shape"/>
<feGaussianBlur stdDeviation="9.05894" result="effect1_foregroundBlur_922_6486"/>
</filter>
</defs>
</svg>
