<svg width="89" height="111" viewBox="0 0 89 111" fill="none" xmlns="http://www.w3.org/2000/svg">
<path d="M37.2719 53.6364C39.8662 60.4257 39.5902 67.491 31.8074 70.3061C15.8 76.2123 12.2121 60.7017 11.9913 59.9289L37.2719 53.6364M9.50743 49.1653L33.3529 43.2592C32.3041 37.4634 33.9049 31.6676 33.9049 24.8231C33.9049 15.5499 26.5636 -2.61024 14.8616 0.315248C1.50374 3.62712 -0.428185 18.4753 0.0685951 25.6511C0.730969 32.8268 9.12104 48.1718 9.50743 49.1653M76.5176 98.5122C76.352 99.3402 72.709 114.796 56.7016 108.945C48.9739 106.074 48.6427 99.009 51.237 92.2197L76.5176 98.5122ZM88.3851 64.2895C88.9371 57.1138 87.0604 42.2104 73.6473 38.8985C62.0006 35.8627 54.6593 54.1331 54.6593 63.4616C54.6593 70.2509 56.2048 76.0467 55.2664 81.8425L79.0015 87.7486C79.4431 86.7551 87.778 71.4101 88.3851 64.2895V64.2895Z" fill="white"/>
</svg>
