<svg width="151" height="151" viewBox="0 0 151 151" fill="none" xmlns="http://www.w3.org/2000/svg">
<g filter="url(#filter0_f_922_6456)">
<circle cx="75.8038" cy="75.2975" r="55.4913" fill="black" fill-opacity="0.6"/>
</g>
<circle cx="75.5401" cy="75.0342" r="67.203" stroke="white" stroke-width="2.58827"/>
<circle cx="75.6973" cy="75.1909" r="73.7059" stroke="white" stroke-width="2.58827" stroke-miterlimit="2.50986" stroke-dasharray="57.8 57.8"/>
<path d="M99.0697 82.3825H51.888C41.4752 82.3825 33.0039 73.9111 33.0039 63.4984C33.0039 53.0857 41.4752 44.6143 51.888 44.6143H99.0697C109.483 44.6143 117.954 53.0857 117.954 63.4984C117.954 73.9111 109.483 82.3825 99.0697 82.3825ZM51.888 47.7923C43.2276 47.7923 36.1819 54.838 36.1819 63.4984C36.1819 72.1588 43.2276 79.2045 51.888 79.2045H99.0697C107.73 79.2045 114.776 72.1588 114.776 63.4984C114.776 54.838 107.73 47.7923 99.0697 47.7923H51.888V47.7923Z" fill="white"/>
<path d="M94.6473 105.202H54.7227V103.696C54.7227 98.3814 59.046 94.0581 64.3602 94.0581H85.0099C90.324 94.0581 94.6473 98.3814 94.6473 103.696V105.202ZM57.9072 102.19H91.4628C90.7791 99.2593 88.1454 97.0701 85.0099 97.0701H64.3602C61.2246 97.0701 58.5909 99.2593 57.9072 102.19Z" fill="white"/>
<path d="M74.6832 76.2226C67.6671 76.2226 61.959 70.5145 61.959 63.4982C61.959 56.482 67.6671 50.7739 74.6832 50.7739C81.6994 50.7739 87.4076 56.482 87.4076 63.4982C87.4076 70.5145 81.6996 76.2226 74.6832 76.2226V76.2226ZM74.6832 53.7859C69.3278 53.7859 64.971 58.1428 64.971 63.4982C64.971 68.8537 69.3278 73.2106 74.6832 73.2106C80.0387 73.2106 84.3957 68.8537 84.3957 63.4982C84.3957 58.1428 80.0387 53.7859 74.6832 53.7859V53.7859Z" fill="white"/>
<path d="M74.6845 69.6181C71.3099 69.6181 68.5645 66.8726 68.5645 63.498C68.5645 60.1233 71.3099 57.3779 74.6845 57.3779C78.0591 57.3779 80.8047 60.1234 80.8047 63.498C80.8047 66.8725 78.0592 69.6181 74.6845 69.6181ZM74.6845 60.3899C72.9706 60.3899 71.5764 61.7842 71.5764 63.498C71.5764 65.2117 72.9706 66.6061 74.6845 66.6061C76.3983 66.6061 77.7927 65.2118 77.7927 63.498C77.7927 61.7841 76.3983 60.3899 74.6845 60.3899Z" fill="white"/>
<path d="M81.8543 97.0703H67.0508V79.2261H81.8543V97.0703ZM70.0628 94.0583H78.8423V82.238H70.0628V94.0583Z" fill="white"/>
<defs>
<filter id="filter0_f_922_6456" x="2.19462" y="1.68827" width="147.218" height="147.218" filterUnits="userSpaceOnUse" color-interpolation-filters="sRGB">
<feFlood flood-opacity="0" result="BackgroundImageFix"/>
<feBlend mode="normal" in="SourceGraphic" in2="BackgroundImageFix" result="shape"/>
<feGaussianBlur stdDeviation="9.05894" result="effect1_foregroundBlur_922_6456"/>
</filter>
</defs>
</svg>
