<svg width="150" height="151" viewBox="0 0 150 151" fill="none" xmlns="http://www.w3.org/2000/svg">
<g filter="url(#filter0_f_922_6449)">
<circle cx="75.1066" cy="75.2975" r="55.4913" fill="black" fill-opacity="0.6"/>
</g>
<path d="M115.439 67.2689C114.409 63.7079 111.504 61.0842 107.006 59.5847C103.726 58.5539 100.54 58.4604 99.6972 58.4604H96.8858C95.3864 58.4604 93.8869 58.4604 92.2941 58.5539L58.1852 58.5546C56.6857 58.5546 55.0929 58.4611 53.5934 58.4611H50.7821C49.9389 58.4611 46.7531 58.5546 43.473 59.5854C39.0688 60.9907 36.164 63.6144 35.0398 67.2696C34.9464 67.4572 34.5712 68.2069 32.8848 68.3938V73.266C32.8848 73.266 33.728 73.3595 34.2901 74.0158C34.1966 77.1081 34.4777 81.0437 35.6954 84.9794C36.6327 88.0717 39.631 91.7262 48.346 91.7262C51.907 91.7262 54.9995 91.0699 55.374 90.9764C56.2172 90.7889 64.2758 89.0083 69.8985 76.4519V76.5454L72.8974 70.8293C72.8974 70.8293 72.7098 70.3606 72.1477 69.7985C72.1477 69.5174 72.2412 69.2364 72.2412 68.9553C72.4288 68.6742 73.1785 68.299 75.2401 68.299C77.3952 68.299 78.0514 68.6736 78.239 68.9553C78.239 69.2364 78.3325 69.5174 78.3325 69.7985C77.6762 70.3606 77.5828 70.8293 77.5828 70.8293L80.5817 76.5454V76.3578C86.1095 89.1024 94.2624 90.883 95.1056 91.0706C95.4801 91.164 98.5725 91.8203 102.134 91.8203C110.848 91.8203 113.847 88.1658 114.784 85.0735C116.003 81.1378 116.284 77.2024 116.189 74.1099C116.752 73.5478 117.595 73.3602 117.595 73.3602V68.3938C115.908 68.2062 115.533 67.363 115.44 67.2688L115.439 67.2689H115.439ZM69.3362 67.9252C69.3362 69.7991 68.8675 71.2052 68.8675 71.2052C67.3681 75.6087 64.6509 81.7001 59.9656 85.448C57.1543 87.6971 54.9992 88.0718 54.9992 88.0718H54.9058C54.9058 88.0718 51.9068 88.728 48.4399 88.728C45.9097 88.728 43.8481 88.3535 42.2551 87.6972C40.3812 86.9475 39.1629 85.7291 38.6006 84.0427C36.1644 76.2651 37.8509 68.4874 37.9444 68.0187C39.8183 61.5528 49.6576 61.3652 50.7819 61.3652H57.9967C63.2441 61.4587 65.1182 61.8339 65.5867 61.9274C68.9601 65.2074 69.1477 67.1747 69.2413 67.5501L69.3362 67.9252H69.3362ZM75.2398 65.8637C74.9588 65.8637 73.0848 65.7702 72.054 66.2382C71.6795 65.1139 70.9297 63.5211 69.2427 61.4594H81.3304C79.644 63.4275 78.8001 65.0204 78.519 66.2382C77.3948 65.7702 75.6143 65.8637 75.2397 65.8637H75.2398V65.8637ZM111.972 84.1363C111.41 85.8227 110.286 87.041 108.318 87.7908C106.725 88.4471 104.57 88.8216 102.133 88.8216C98.6663 88.8216 95.6674 88.1653 95.6674 88.1653H95.5739C95.5739 88.1653 93.3248 87.7908 90.6075 85.5416C85.9222 81.6995 83.1108 75.7023 81.7056 71.2981C81.7056 71.2981 81.2369 69.8928 81.2369 68.0181V67.8305C81.2369 67.5494 81.4245 65.4879 84.8914 62.2078C85.3601 62.1144 87.2341 61.7392 92.4815 61.6457H96.6047V61.5522H99.6964C100.821 61.5522 110.66 61.7398 112.534 68.2057C112.722 68.5809 114.409 76.3586 111.972 84.1361L111.972 84.1363V84.1363Z" fill="white"/>
<path d="M40.7442 67.6914H30.5762V73.3431H40.7442V67.6914Z" fill="white"/>
<circle cx="74.8428" cy="75.0342" r="67.203" stroke="white" stroke-width="2.58827"/>
<circle cx="75" cy="75.1909" r="73.7059" stroke="white" stroke-width="2.58827" stroke-miterlimit="2.50986" stroke-dasharray="57.8 57.8"/>
<defs>
<filter id="filter0_f_922_6449" x="1.49735" y="1.68827" width="147.218" height="147.218" filterUnits="userSpaceOnUse" color-interpolation-filters="sRGB">
<feFlood flood-opacity="0" result="BackgroundImageFix"/>
<feBlend mode="normal" in="SourceGraphic" in2="BackgroundImageFix" result="shape"/>
<feGaussianBlur stdDeviation="9.05894" result="effect1_foregroundBlur_922_6449"/>
</filter>
</defs>
</svg>
