<svg width="126" height="135" viewBox="0 0 126 135" fill="none" xmlns="http://www.w3.org/2000/svg">
<path d="M125.471 5.13888V5.13874L123.233 1.62L123.378 1.38535C123.378 1.38533 123.378 1.3853 123.378 1.38528C122.738 0.988613 122.006 0.762518 121.253 0.72851C120.5 0.694501 119.751 0.853733 119.077 1.19105L52.84 34.3098L52.8397 34.3099C52.1072 34.677 51.4912 35.2406 51.0607 35.9378C50.6302 36.635 50.4022 37.4383 50.4022 38.2576V64.057L3.74444 79.6096C3.74442 79.6096 3.7444 79.6096 3.74438 79.6096C2.86546 79.9023 2.10087 80.4641 1.55882 81.2154C1.01676 81.9666 0.724714 82.8694 0.724011 83.7958V83.796V129.334C0.724011 130.505 1.18925 131.629 2.01738 132.457C2.84551 133.285 3.9687 133.75 5.13985 133.75H79.6571C80.8283 133.75 81.9515 133.285 82.7796 132.457C83.6077 131.629 84.073 130.505 84.073 129.334V117.191H91.8007V129.334C91.8007 130.505 92.2659 131.629 93.094 132.457C93.9222 133.285 95.0454 133.75 96.2165 133.75H121.056C122.227 133.75 123.35 133.285 124.178 132.457C125.006 131.629 125.471 130.505 125.471 129.334V5.13888ZM9.55569 124.918V86.9756L50.4022 73.3656V124.918H9.55569ZM59.2339 40.9867L116.64 12.2837V124.918H100.632V112.775C100.632 111.604 100.167 110.481 99.339 109.652C98.5109 108.824 97.3877 108.359 96.2165 108.359H79.6571C78.486 108.359 77.3628 108.824 76.5347 109.652C75.7065 110.481 75.2413 111.604 75.2413 112.775V124.918H59.2339V40.9867Z" fill="white" stroke="white" stroke-width="0.551978"/>
<path d="M17.5596 91.8007H17.2836V92.0767V100.356V100.632H17.5596H25.8393H26.1153V100.356V92.0767V91.8007H25.8393H17.5596ZM34.119 91.8007H33.843V92.0767V100.356V100.632H34.119H42.3987H42.6746V100.356V92.0767V91.8007H42.3987H34.119ZM17.5596 108.36H17.2836V108.636V116.916V117.192H17.5596H25.8393H26.1153V116.916V108.636V108.36H25.8393H17.5596ZM34.119 108.36H33.843V108.636V116.916V117.192H34.119H42.3987H42.6746V116.916V108.636V108.36H42.3987H34.119ZM67.2377 75.2413H66.9618V75.5173V83.797V84.073H67.2377H75.5174H75.7934V83.797V75.5173V75.2413H75.5174H67.2377ZM83.7971 75.2413H83.5212V75.5173V83.797V84.073H83.7971H92.0768H92.3528V83.797V75.5173V75.2413H92.0768H83.7971ZM67.2377 91.8007H66.9618V92.0767V100.356V100.632H67.2377H75.5174H75.7934V100.356V92.0767V91.8007H75.5174H67.2377ZM83.7971 91.8007H83.5212V92.0767V100.356V100.632H83.7971H92.0768H92.3528V100.356V92.0767V91.8007H92.0768H83.7971ZM100.357 75.2413H100.081V75.5173V83.797V84.073H100.357H108.636H108.912V83.797V75.5173V75.2413H108.636H100.357ZM100.357 91.8007H100.081V92.0767V100.356V100.632H100.357H108.636H108.912V100.356V92.0767V91.8007H108.636H100.357ZM67.2377 58.6819H66.9618V58.9579V67.2376V67.5136H67.2377H75.5174H75.7934V67.2376V58.9579V58.6819H75.5174H67.2377ZM83.7971 58.6819H83.5212V58.9579V67.2376V67.5136H83.7971H92.0768H92.3528V67.2376V58.9579V58.6819H92.0768H83.7971ZM100.357 58.6819H100.081V58.9579V67.2376V67.5136H100.357H108.636H108.912V67.2376V58.9579V58.6819H108.636H100.357ZM67.2377 42.1225H66.9618V42.3985V50.6782V50.9542H67.2377H75.5174H75.7934V50.6782V42.3985V42.1225H75.5174H67.2377ZM83.7971 42.1225H83.5212V42.3985V50.6782V50.9542H83.7971H92.0768H92.3528V50.6782V42.3985V42.1225H92.0768H83.7971ZM100.357 42.1225H100.081V42.3985V50.6782V50.9542H100.357H108.636H108.912V50.6782V42.3985V42.1225H108.636H100.357ZM100.357 25.5631H100.081V25.8391V34.1188V34.3948H100.357H108.636H108.912V34.1188V25.8391V25.5631H108.636H100.357Z" fill="white" stroke="white" stroke-width="0.551978"/>
</svg>
