<svg width="288" height="288" viewBox="0 0 288 288" fill="none" xmlns="http://www.w3.org/2000/svg">
<circle cx="144" cy="144" r="144" fill="black"/>
<path d="M238.024 115.685C237.947 119.373 237.2 122.882 235.953 126.14L235.953 126.14C243.873 131.936 248.946 141.359 248.727 151.91C248.476 163.943 241.423 174.216 231.324 179.188C229.189 185.901 224.847 191.601 219.156 195.474C218.587 212.475 204.469 225.907 187.412 225.551C186.826 225.539 178.954 231.228 176.949 238.067C171.637 238.656 151.999 237.546 151.999 237.546C151.192 223.744 151.079 220.286 149.341 218.964C147.659 217.685 144.452 218.409 137.614 213.68C123.73 211.879 107.732 206.275 105.779 192.544C104.028 192.812 102.242 192.965 100.412 192.926C92.9543 192.771 86.8097 183.638 85.9954 180.203C83.2944 181.101 80.4082 181.586 77.3976 181.523C65.2945 181.27 55.3482 172.657 52.9039 161.313C42.1165 156.238 34.7423 145.186 35.0069 132.5C35.206 122.957 39.6891 114.516 46.5707 108.948C46.5699 108.855 46.5685 108.763 46.5671 108.671C46.5638 108.443 46.5604 108.215 46.5652 107.985C46.9776 88.2164 62.7957 72.3904 82.3199 71.7202C88.6524 59.6911 101.387 51.5989 115.904 51.9017C121.524 52.019 126.821 53.3892 131.547 55.726C137.779 51.3461 145.409 48.8371 153.61 49.0082C166.643 49.2801 177.957 56.2562 184.35 66.5699C186.784 66.0147 189.315 65.7094 191.924 65.7639C205.512 66.0473 216.851 75.0076 220.845 87.2328C231.235 92.4552 238.283 103.283 238.024 115.685Z" fill="#ED1E40"/>
<path d="M151.61 172.498H151.166H140.978H140.534L140.45 172.062C139.864 169.021 137.152 166.708 133.893 166.708C130.204 166.708 127.213 169.67 127.213 173.296L151.61 172.498ZM151.61 172.498L151.694 172.062M151.61 172.498L151.694 172.062M151.694 172.062C152.281 169.021 154.993 166.708 158.252 166.708C161.941 166.708 164.931 169.67 164.931 173.296C164.931 176.92 161.941 179.883 158.252 179.883C154.993 179.883 152.281 177.569 151.693 174.529L151.609 174.094H151.165H140.98H140.536M151.694 172.062L140.536 174.094M140.536 174.094L140.452 174.529M140.536 174.094L140.452 174.529M140.452 174.529C139.865 177.569 137.152 179.883 133.894 179.883C130.205 179.883 127.214 176.92 127.213 173.296L140.452 174.529ZM128.846 173.296C128.846 176.054 131.116 178.287 133.894 178.287C136.671 178.287 138.942 176.053 138.942 173.296C138.942 170.536 136.671 168.304 133.894 168.304C131.117 168.304 128.846 170.536 128.846 173.296ZM153.203 173.296C153.203 176.054 155.474 178.287 158.252 178.287C161.028 178.287 163.3 176.054 163.3 173.296C163.3 170.536 161.028 168.304 158.252 168.304C155.474 168.304 153.203 170.536 153.203 173.296Z" fill="white" stroke="#ED1E40" stroke-width="1.07517"/>
<path d="M151.61 80.6616H151.166H140.978H140.534L140.45 80.2258C139.864 77.1851 137.152 74.8716 133.893 74.8716C130.204 74.8716 127.213 77.8343 127.213 81.4595L151.61 80.6616ZM151.61 80.6616L151.694 80.2258M151.61 80.6616L151.694 80.2258M151.694 80.2258C152.281 77.1851 154.993 74.8716 158.252 74.8716C161.941 74.8716 164.931 77.8334 164.931 81.4596C164.931 85.0841 161.941 88.0469 158.252 88.0469C154.993 88.0469 152.281 85.7327 151.693 82.6933L151.609 82.2577H151.165H140.98H140.536M151.694 80.2258L140.536 82.2577M140.536 82.2577L140.452 82.6933M140.536 82.2577L140.452 82.6933M140.452 82.6933C139.865 85.7327 137.152 88.0469 133.894 88.0469C130.205 88.0469 127.214 85.0844 127.213 81.4596L140.452 82.6933ZM128.846 81.4596C128.846 84.2181 131.116 86.4506 133.894 86.4506C136.671 86.4506 138.942 84.2174 138.942 81.4596C138.942 78.7003 136.671 76.468 133.894 76.468C131.117 76.468 128.846 78.7004 128.846 81.4596ZM153.203 81.4596C153.203 84.2183 155.474 86.4506 158.252 86.4506C161.028 86.4506 163.3 84.2175 163.3 81.4596C163.3 78.7003 161.028 76.468 158.252 76.468C155.474 76.468 153.203 78.7003 153.203 81.4596Z" fill="white" stroke="#ED1E40" stroke-width="1.07517"/>
<mask id="path-5-inside-1_799_151" fill="white">
<path fill-rule="evenodd" clip-rule="evenodd" d="M190.178 118.839C186.556 118.839 183.532 121.446 182.877 124.881L175.031 124.883V114.36H185.022L188.691 110.691H197.428C198.056 114.16 201.093 116.801 204.74 116.801C208.84 116.801 212.176 113.463 212.176 109.365C212.176 105.263 208.84 101.928 204.74 101.928C201.142 101.928 198.131 104.5 197.45 107.902H187.538L183.869 111.572H175.033V101.707H182.872L193.346 90.785C194.612 91.7761 196.198 92.374 197.926 92.374C202.026 92.374 205.362 89.0372 205.362 84.9374C205.362 80.8361 202.026 77.5009 197.926 77.5009C193.825 77.5009 190.488 80.8363 190.488 84.9374C190.488 86.3015 190.864 87.5746 191.508 88.6741L181.685 98.9186H174.912C174.325 95.9129 171.68 93.6419 168.503 93.6419H123.253C120.073 93.6419 117.429 95.9128 116.84 98.9186H110.067L100.245 88.6741C100.889 87.5745 101.263 86.3 101.263 84.9374C101.263 80.8361 97.926 77.5009 93.8256 77.5009C89.7252 77.5009 86.3895 80.8361 86.3895 84.9374C86.3895 89.0388 89.7254 92.374 93.8256 92.374C95.553 92.374 97.1408 91.7761 98.4045 90.785L108.879 101.707H116.718V111.572H107.883L104.212 107.902H94.3001C93.6194 104.5 90.6091 101.928 87.0091 101.928C82.9073 101.928 79.5716 105.264 79.5716 109.365C79.5716 113.463 82.9089 116.801 87.0091 116.801C90.6564 116.801 93.6924 114.16 94.3203 110.691H103.058L106.727 114.36H116.716L116.714 124.883H108.871C108.216 121.447 105.195 118.84 101.57 118.84C97.4699 118.84 94.1329 122.175 94.1329 126.277C94.1329 130.377 97.4701 133.713 101.57 133.713C105.195 133.713 108.217 131.106 108.871 127.67H116.715V138.019H106.726L103.057 141.689H94.3189C93.6913 138.219 90.6554 135.578 87.0078 135.578C82.906 135.578 79.5703 138.915 79.5703 143.015C79.5703 147.114 82.9076 150.452 87.0078 150.452C90.6078 150.452 93.6181 147.88 94.2988 144.478H104.211L107.881 140.809H116.717V150.674H108.878L98.4032 161.596C97.1396 160.605 95.5518 160.007 93.8243 160.007C89.7238 160.007 86.3882 163.342 86.3882 167.442C86.3882 171.544 89.7238 174.879 93.8243 174.879C97.9248 174.879 101.262 171.542 101.262 167.442C101.262 166.08 100.886 164.805 100.243 163.706L110.066 153.462H116.839C117.428 156.47 120.072 158.739 123.252 158.739L168.506 158.738C171.683 158.738 174.327 156.468 174.915 153.461H181.688L191.511 163.704C190.867 164.804 190.491 166.078 190.491 167.441C190.491 171.542 193.828 174.877 197.929 174.877C202.029 174.877 205.365 171.541 205.365 167.441C205.365 163.341 202.029 160.006 197.929 160.006C196.201 160.006 194.614 160.604 193.348 161.595L182.875 150.672H175.036V140.808H183.872L187.541 144.477H197.453C198.132 147.878 201.144 150.45 204.742 150.45C208.843 150.45 212.179 147.114 212.179 143.014C212.179 138.914 208.843 135.577 204.742 135.577C201.095 135.577 198.059 138.218 197.431 141.687H188.693L185.024 138.017H175.034V127.669H182.878C183.532 131.105 186.555 133.712 190.178 133.712C194.279 133.712 197.615 130.375 197.615 126.275C197.615 122.175 194.279 118.839 190.178 118.839ZM101.571 121.628C99.0085 121.628 96.9229 123.715 96.9229 126.277C96.9229 128.841 99.0084 130.925 101.571 130.925C104.134 130.925 106.22 128.84 106.22 126.277C106.22 123.715 104.134 121.628 101.571 121.628ZM82.3607 109.364C82.3607 106.802 84.4463 104.716 87.009 104.716C89.5719 104.716 91.6574 106.802 91.6574 109.364C91.6574 111.927 89.5718 114.012 87.009 114.012C84.4461 114.012 82.3607 111.927 82.3607 109.364ZM87.009 138.37C84.4463 138.37 82.3607 140.456 82.3607 143.019C82.3607 145.583 84.4461 147.667 87.009 147.667C89.5718 147.667 91.6574 145.583 91.6574 143.019C91.6574 140.455 89.5719 138.37 87.009 138.37ZM202.573 84.9378C202.573 87.5004 200.487 89.5856 197.925 89.5856C195.362 89.5856 193.276 87.5002 193.276 84.9378C193.276 82.3738 195.362 80.2886 197.925 80.2886C200.487 80.2886 202.573 82.374 202.573 84.9378ZM93.8234 80.2873C91.2606 80.2873 89.175 82.3725 89.175 84.9365C89.175 87.4989 91.2605 89.5842 93.8234 89.5842C96.3861 89.5842 98.4717 87.499 98.4717 84.9365C98.4717 82.3727 96.3862 80.2873 93.8234 80.2873ZM209.387 109.364C209.387 111.926 207.302 114.011 204.739 114.011C202.176 114.011 200.092 111.926 200.091 109.364C200.091 106.801 202.176 104.716 204.739 104.716C207.302 104.716 209.387 106.8 209.387 109.364ZM93.8234 162.799C91.2606 162.799 89.175 164.883 89.175 167.445C89.175 170.009 91.2605 172.093 93.8234 172.093C96.3861 172.093 98.4717 170.008 98.4717 167.445C98.4717 164.881 96.3862 162.799 93.8234 162.799ZM190.177 130.926C192.739 130.926 194.825 128.841 194.825 126.279C194.825 123.716 192.74 121.63 190.177 121.63C187.614 121.63 185.528 123.716 185.528 126.279C185.528 128.842 187.614 130.926 190.177 130.926ZM209.387 143.017C209.387 145.581 207.302 147.665 204.739 147.665C202.176 147.665 200.092 145.581 200.091 143.017C200.091 140.454 202.176 138.368 204.739 138.368C207.302 138.368 209.387 140.454 209.387 143.017ZM197.925 172.09C200.487 172.09 202.573 170.005 202.573 167.443C202.573 164.88 200.487 162.796 197.925 162.796C195.362 162.796 193.276 164.88 193.276 167.443C193.276 170.005 195.362 172.09 197.925 172.09Z"/>
</mask>
<path fill-rule="evenodd" clip-rule="evenodd" d="M190.178 118.839C186.556 118.839 183.532 121.446 182.877 124.881L175.031 124.883V114.36H185.022L188.691 110.691H197.428C198.056 114.16 201.093 116.801 204.74 116.801C208.84 116.801 212.176 113.463 212.176 109.365C212.176 105.263 208.84 101.928 204.74 101.928C201.142 101.928 198.131 104.5 197.45 107.902H187.538L183.869 111.572H175.033V101.707H182.872L193.346 90.785C194.612 91.7761 196.198 92.374 197.926 92.374C202.026 92.374 205.362 89.0372 205.362 84.9374C205.362 80.8361 202.026 77.5009 197.926 77.5009C193.825 77.5009 190.488 80.8363 190.488 84.9374C190.488 86.3015 190.864 87.5746 191.508 88.6741L181.685 98.9186H174.912C174.325 95.9129 171.68 93.6419 168.503 93.6419H123.253C120.073 93.6419 117.429 95.9128 116.84 98.9186H110.067L100.245 88.6741C100.889 87.5745 101.263 86.3 101.263 84.9374C101.263 80.8361 97.926 77.5009 93.8256 77.5009C89.7252 77.5009 86.3895 80.8361 86.3895 84.9374C86.3895 89.0388 89.7254 92.374 93.8256 92.374C95.553 92.374 97.1408 91.7761 98.4045 90.785L108.879 101.707H116.718V111.572H107.883L104.212 107.902H94.3001C93.6194 104.5 90.6091 101.928 87.0091 101.928C82.9073 101.928 79.5716 105.264 79.5716 109.365C79.5716 113.463 82.9089 116.801 87.0091 116.801C90.6564 116.801 93.6924 114.16 94.3203 110.691H103.058L106.727 114.36H116.716L116.714 124.883H108.871C108.216 121.447 105.195 118.84 101.57 118.84C97.4699 118.84 94.1329 122.175 94.1329 126.277C94.1329 130.377 97.4701 133.713 101.57 133.713C105.195 133.713 108.217 131.106 108.871 127.67H116.715V138.019H106.726L103.057 141.689H94.3189C93.6913 138.219 90.6554 135.578 87.0078 135.578C82.906 135.578 79.5703 138.915 79.5703 143.015C79.5703 147.114 82.9076 150.452 87.0078 150.452C90.6078 150.452 93.6181 147.88 94.2988 144.478H104.211L107.881 140.809H116.717V150.674H108.878L98.4032 161.596C97.1396 160.605 95.5518 160.007 93.8243 160.007C89.7238 160.007 86.3882 163.342 86.3882 167.442C86.3882 171.544 89.7238 174.879 93.8243 174.879C97.9248 174.879 101.262 171.542 101.262 167.442C101.262 166.08 100.886 164.805 100.243 163.706L110.066 153.462H116.839C117.428 156.47 120.072 158.739 123.252 158.739L168.506 158.738C171.683 158.738 174.327 156.468 174.915 153.461H181.688L191.511 163.704C190.867 164.804 190.491 166.078 190.491 167.441C190.491 171.542 193.828 174.877 197.929 174.877C202.029 174.877 205.365 171.541 205.365 167.441C205.365 163.341 202.029 160.006 197.929 160.006C196.201 160.006 194.614 160.604 193.348 161.595L182.875 150.672H175.036V140.808H183.872L187.541 144.477H197.453C198.132 147.878 201.144 150.45 204.742 150.45C208.843 150.45 212.179 147.114 212.179 143.014C212.179 138.914 208.843 135.577 204.742 135.577C201.095 135.577 198.059 138.218 197.431 141.687H188.693L185.024 138.017H175.034V127.669H182.878C183.532 131.105 186.555 133.712 190.178 133.712C194.279 133.712 197.615 130.375 197.615 126.275C197.615 122.175 194.279 118.839 190.178 118.839ZM101.571 121.628C99.0085 121.628 96.9229 123.715 96.9229 126.277C96.9229 128.841 99.0084 130.925 101.571 130.925C104.134 130.925 106.22 128.84 106.22 126.277C106.22 123.715 104.134 121.628 101.571 121.628ZM82.3607 109.364C82.3607 106.802 84.4463 104.716 87.009 104.716C89.5719 104.716 91.6574 106.802 91.6574 109.364C91.6574 111.927 89.5718 114.012 87.009 114.012C84.4461 114.012 82.3607 111.927 82.3607 109.364ZM87.009 138.37C84.4463 138.37 82.3607 140.456 82.3607 143.019C82.3607 145.583 84.4461 147.667 87.009 147.667C89.5718 147.667 91.6574 145.583 91.6574 143.019C91.6574 140.455 89.5719 138.37 87.009 138.37ZM202.573 84.9378C202.573 87.5004 200.487 89.5856 197.925 89.5856C195.362 89.5856 193.276 87.5002 193.276 84.9378C193.276 82.3738 195.362 80.2886 197.925 80.2886C200.487 80.2886 202.573 82.374 202.573 84.9378ZM93.8234 80.2873C91.2606 80.2873 89.175 82.3725 89.175 84.9365C89.175 87.4989 91.2605 89.5842 93.8234 89.5842C96.3861 89.5842 98.4717 87.499 98.4717 84.9365C98.4717 82.3727 96.3862 80.2873 93.8234 80.2873ZM209.387 109.364C209.387 111.926 207.302 114.011 204.739 114.011C202.176 114.011 200.092 111.926 200.091 109.364C200.091 106.801 202.176 104.716 204.739 104.716C207.302 104.716 209.387 106.8 209.387 109.364ZM93.8234 162.799C91.2606 162.799 89.175 164.883 89.175 167.445C89.175 170.009 91.2605 172.093 93.8234 172.093C96.3861 172.093 98.4717 170.008 98.4717 167.445C98.4717 164.881 96.3862 162.799 93.8234 162.799ZM190.177 130.926C192.739 130.926 194.825 128.841 194.825 126.279C194.825 123.716 192.74 121.63 190.177 121.63C187.614 121.63 185.528 123.716 185.528 126.279C185.528 128.842 187.614 130.926 190.177 130.926ZM209.387 143.017C209.387 145.581 207.302 147.665 204.739 147.665C202.176 147.665 200.092 145.581 200.091 143.017C200.091 140.454 202.176 138.368 204.739 138.368C207.302 138.368 209.387 140.454 209.387 143.017ZM197.925 172.09C200.487 172.09 202.573 170.005 202.573 167.443C202.573 164.88 200.487 162.796 197.925 162.796C195.362 162.796 193.276 164.88 193.276 167.443C193.276 170.005 195.362 172.09 197.925 172.09Z" fill="white" stroke="#ED1E40" stroke-width="2.15034" mask="url(#path-5-inside-1_799_151)"/>
<path d="M130.207 139.936C128.255 139.936 126.676 138.354 126.676 136.405V116.262C126.676 114.31 128.258 112.731 130.207 112.731C132.158 112.731 133.738 114.314 133.738 116.262V136.405C133.741 138.354 132.158 139.936 130.207 139.936Z" fill="#ED1E40"/>
<path d="M140.89 134.932C138.939 134.932 137.359 133.35 137.359 131.401V120.472C137.359 118.521 138.942 116.941 140.89 116.941C142.842 116.941 144.421 118.524 144.421 120.472V131.401C144.424 133.35 142.842 134.932 140.89 134.932Z" fill="#ED1E40"/>
<path d="M158.693 134.456C157.004 135.43 154.842 134.854 153.868 133.162L147.677 122.436C146.703 120.747 147.279 118.585 148.971 117.611C150.661 116.637 152.823 117.213 153.797 118.905L159.988 129.631C160.962 131.32 160.383 133.482 158.693 134.456Z" fill="#8A1E37"/>
<path d="M155.167 134.456C156.856 135.43 159.018 134.854 159.992 133.162L166.184 122.436C167.158 120.747 166.582 118.585 164.889 117.611C163.2 116.637 161.038 117.213 160.064 118.905L153.872 129.631C152.898 131.32 153.477 133.482 155.167 134.456Z" fill="#ED1E40"/>
</svg>
