<svg width="214" height="190" viewBox="0 0 214 190" fill="none" xmlns="http://www.w3.org/2000/svg">
<path d="M203.024 66.6847C202.947 70.3726 202.2 73.8822 200.953 77.1398L200.953 77.1403C208.873 82.9357 213.946 92.3587 213.727 102.91C213.476 114.943 206.423 125.216 196.324 130.188C194.189 136.901 189.847 142.601 184.156 146.474C183.587 163.475 169.469 176.907 152.412 176.551C151.826 176.539 143.954 182.228 141.949 189.067C136.637 189.656 116.999 188.546 116.999 188.546C116.192 174.744 116.079 171.286 114.341 169.964C112.659 168.685 109.452 169.409 102.614 164.68C88.73 162.879 72.7323 157.275 70.779 143.544C69.0276 143.812 67.2419 143.965 65.4122 143.926C57.9543 143.771 51.8097 134.638 50.9954 131.203C48.2944 132.101 45.4082 132.586 42.3976 132.523C30.2945 132.27 20.3482 123.657 17.9039 112.313C7.11655 107.238 -0.257748 96.186 0.00689851 83.4996C0.205972 73.9565 4.68908 65.5162 11.5707 59.9477C11.5699 59.8554 11.5685 59.7634 11.5671 59.6714C11.5638 59.4431 11.5604 59.2153 11.5652 58.9852C11.9776 39.2164 27.7957 23.3904 47.3199 22.7202C53.6524 10.6911 66.3867 2.59891 80.9041 2.90175C86.5241 3.01898 91.8208 4.38922 96.5473 6.72597C102.779 2.34614 110.409 -0.162858 118.61 0.00821655C131.643 0.2801 142.957 7.25619 149.35 17.5699C151.784 17.0147 154.315 16.7094 156.924 16.7639C170.512 17.0473 181.851 26.0076 185.845 38.2328C196.235 43.4552 203.283 54.2831 203.024 66.6847Z" fill="#ED1E40"/>
<path d="M116.61 123.498H116.166H105.978H105.534L105.45 123.062C104.864 120.021 102.152 117.708 98.8929 117.708C95.2037 117.708 92.2134 120.67 92.2134 124.296L116.61 123.498ZM116.61 123.498L116.694 123.062M116.61 123.498L116.694 123.062M116.694 123.062C117.281 120.021 119.993 117.708 123.252 117.708C126.941 117.708 129.931 120.67 129.931 124.296C129.931 127.92 126.941 130.883 123.252 130.883C119.993 130.883 117.281 128.569 116.693 125.529L116.609 125.094H116.165H105.98H105.536M116.694 123.062L105.536 125.094M105.536 125.094L105.452 125.529M105.536 125.094L105.452 125.529M105.452 125.529C104.865 128.569 102.152 130.883 98.8937 130.883C95.2046 130.883 92.2141 127.92 92.2134 124.296L105.452 125.529ZM93.8459 124.296C93.8459 127.054 96.1162 129.287 98.8937 129.287C101.671 129.287 103.942 127.053 103.942 124.296C103.942 121.536 101.671 119.304 98.8937 119.304C96.117 119.304 93.8459 121.536 93.8459 124.296ZM118.203 124.296C118.203 127.054 120.474 129.287 123.252 129.287C126.028 129.287 128.3 127.054 128.3 124.296C128.3 121.536 126.028 119.304 123.252 119.304C120.474 119.304 118.203 121.536 118.203 124.296Z" fill="white" stroke="#ED1E40" stroke-width="1.07517"/>
<path d="M116.61 31.6616H116.166H105.978H105.534L105.45 31.2258C104.864 28.1851 102.152 25.8716 98.8929 25.8716C95.2037 25.8716 92.2134 28.8343 92.2134 32.4595L116.61 31.6616ZM116.61 31.6616L116.694 31.2258M116.61 31.6616L116.694 31.2258M116.694 31.2258C117.281 28.1851 119.993 25.8716 123.252 25.8716C126.941 25.8716 129.931 28.8334 129.931 32.4596C129.931 36.0841 126.941 39.0469 123.252 39.0469C119.993 39.0469 117.281 36.7327 116.693 33.6933L116.609 33.2577H116.165H105.98H105.536M116.694 31.2258L105.536 33.2577M105.536 33.2577L105.452 33.6933M105.536 33.2577L105.452 33.6933M105.452 33.6933C104.865 36.7327 102.152 39.0469 98.8937 39.0469C95.2046 39.0469 92.2141 36.0844 92.2134 32.4596L105.452 33.6933ZM93.8459 32.4596C93.8459 35.2181 96.1162 37.4506 98.8937 37.4506C101.671 37.4506 103.942 35.2174 103.942 32.4596C103.942 29.7003 101.671 27.468 98.8937 27.468C96.117 27.468 93.8459 29.7004 93.8459 32.4596ZM118.203 32.4596C118.203 35.2183 120.474 37.4506 123.252 37.4506C126.028 37.4506 128.3 35.2175 128.3 32.4596C128.3 29.7003 126.028 27.468 123.252 27.468C120.474 27.468 118.203 29.7003 118.203 32.4596Z" fill="white" stroke="#ED1E40" stroke-width="1.07517"/>
<mask id="path-4-inside-1_799_128" fill="white">
<path fill-rule="evenodd" clip-rule="evenodd" d="M155.178 69.8387C151.556 69.8387 148.532 72.4458 147.877 75.8814L140.031 75.8827V65.3595H150.022L153.691 61.6909H162.428C163.056 65.1602 166.093 67.8013 169.74 67.8013C173.84 67.8013 177.176 64.4634 177.176 60.3647C177.176 56.2634 173.84 52.9281 169.74 52.9281C166.142 52.9281 163.131 55.5001 162.45 58.9017H152.538L148.869 62.5718H140.033V52.7074H147.872L158.346 41.785C159.612 42.7761 161.198 43.374 162.926 43.374C167.026 43.374 170.362 40.0372 170.362 35.9374C170.362 31.8361 167.026 28.5009 162.926 28.5009C158.825 28.5009 155.488 31.8363 155.488 35.9374C155.488 37.3015 155.864 38.5746 156.508 39.6741L146.685 49.9186H139.912C139.325 46.9129 136.68 44.6419 133.503 44.6419H88.2529C85.073 44.6419 82.4289 46.9128 81.8404 49.9186H75.0673L65.2448 39.6741C65.8889 38.5745 66.2631 37.3 66.2631 35.9374C66.2631 31.8361 62.926 28.5009 58.8256 28.5009C54.7252 28.5009 51.3895 31.8361 51.3895 35.9374C51.3895 40.0388 54.7254 43.374 58.8256 43.374C60.553 43.374 62.1408 42.7761 63.4045 41.785L73.8793 52.7074H81.7181V62.5718H72.8827L69.2122 58.9017H59.3001C58.6194 55.5001 55.6091 52.9281 52.0091 52.9281C47.9073 52.9281 44.5716 56.2636 44.5716 60.3647C44.5716 64.4633 47.9089 67.8013 52.0091 67.8013C55.6564 67.8013 58.6924 65.1604 59.3203 61.6909H68.0581L71.7272 65.3595H81.7164L81.7136 75.8827H73.8707C73.216 72.4472 70.1947 69.84 66.5704 69.84C62.4699 69.84 59.1329 73.1755 59.1329 77.2766C59.1329 81.3766 62.4701 84.7132 66.5704 84.7132C70.1947 84.7132 73.2172 82.106 73.8707 78.6705H81.715V89.0187H71.7258L68.0567 92.6888H59.3189C58.6913 89.2195 55.6554 86.5784 52.0078 86.5784C47.906 86.5784 44.5703 89.9152 44.5703 94.015C44.5703 98.1136 47.9076 101.452 52.0078 101.452C55.6078 101.452 58.6181 98.8796 59.2988 95.4779H69.2109L72.8814 91.8093H81.7168V101.674H73.878L63.4032 112.596C62.1396 111.605 60.5518 111.007 58.8243 111.007C54.7238 111.007 51.3882 114.342 51.3882 118.442C51.3882 122.544 54.7238 125.879 58.8243 125.879C62.9248 125.879 66.2618 122.542 66.2618 118.442C66.2618 117.08 65.8862 115.805 65.2434 114.706L75.066 104.462H81.8391C82.4278 107.47 85.0718 109.739 88.2515 109.739L133.506 109.738C136.683 109.738 139.327 107.468 139.915 104.461H146.688L156.511 114.704C155.867 115.804 155.491 117.078 155.491 118.441C155.491 122.542 158.828 125.877 162.929 125.877C167.029 125.877 170.365 122.541 170.365 118.441C170.365 114.341 167.029 111.006 162.929 111.006C161.201 111.006 159.614 111.604 158.348 112.595L147.875 101.672H140.036V91.8079H148.872L152.541 95.4766H162.453C163.132 98.8783 166.144 101.45 169.742 101.45C173.843 101.45 177.179 98.1136 177.179 94.0136C177.179 89.9136 173.843 86.577 169.742 86.577C166.095 86.577 163.059 89.2179 162.431 92.6874H153.693L150.024 89.0174H140.034V78.6691H147.878C148.532 82.1047 151.555 84.7118 155.178 84.7118C159.279 84.7118 162.615 81.3752 162.615 77.2752C162.615 73.1753 159.279 69.8387 155.178 69.8387ZM66.5713 72.6281C64.0085 72.6281 61.9229 74.7147 61.9229 77.2773C61.9229 79.8411 64.0084 81.9251 66.5713 81.9251C69.134 81.9251 71.2196 79.8399 71.2196 77.2773C71.2196 74.7149 69.1342 72.6281 66.5713 72.6281ZM47.3607 60.3643C47.3607 57.8017 49.4463 55.7165 52.009 55.7165C54.5719 55.7165 56.6574 57.8018 56.6574 60.3643C56.6574 62.9268 54.5718 65.012 52.009 65.012C49.4461 65.012 47.3607 62.9267 47.3607 60.3643ZM52.009 89.3697C49.4463 89.3697 47.3607 91.4562 47.3607 94.0188C47.3607 96.5826 49.4461 98.6666 52.009 98.6666C54.5718 98.6666 56.6574 96.5828 56.6574 94.0188C56.6574 91.4549 54.5719 89.3697 52.009 89.3697ZM167.573 35.9378C167.573 38.5004 165.487 40.5856 162.925 40.5856C160.362 40.5856 158.276 38.5002 158.276 35.9378C158.276 33.3738 160.362 31.2886 162.925 31.2886C165.487 31.2886 167.573 33.374 167.573 35.9378ZM58.8234 31.2873C56.2606 31.2873 54.175 33.3725 54.175 35.9365C54.175 38.4989 56.2605 40.5842 58.8234 40.5842C61.3861 40.5842 63.4717 38.499 63.4717 35.9365C63.4717 33.3727 61.3862 31.2873 58.8234 31.2873ZM174.387 60.3636C174.387 62.9261 172.302 65.0114 169.739 65.0114C167.176 65.0114 165.092 62.926 165.091 60.3636C165.091 57.801 167.176 55.7158 169.739 55.7158C172.302 55.7158 174.387 57.7998 174.387 60.3636ZM58.8234 113.799C56.2606 113.799 54.175 115.883 54.175 118.445C54.175 121.009 56.2605 123.093 58.8234 123.093C61.3861 123.093 63.4717 121.008 63.4717 118.445C63.4717 115.881 61.3862 113.799 58.8234 113.799ZM155.177 81.9264C157.739 81.9264 159.825 79.8413 159.825 77.2787C159.825 74.7162 157.74 72.6295 155.177 72.6295C152.614 72.6295 150.528 74.7161 150.528 77.2787C150.528 79.8425 152.614 81.9264 155.177 81.9264ZM174.387 94.0168C174.387 96.5807 172.302 98.6646 169.739 98.6646C167.176 98.6646 165.092 96.5806 165.091 94.0168C165.091 91.4542 167.176 89.3676 169.739 89.3676C172.302 89.3676 174.387 91.4544 174.387 94.0168ZM162.925 123.09C165.487 123.09 167.573 121.005 167.573 118.443C167.573 115.88 165.487 113.796 162.925 113.796C160.362 113.796 158.276 115.88 158.276 118.443C158.276 121.005 160.362 123.09 162.925 123.09Z"/>
</mask>
<path fill-rule="evenodd" clip-rule="evenodd" d="M155.178 69.8387C151.556 69.8387 148.532 72.4458 147.877 75.8814L140.031 75.8827V65.3595H150.022L153.691 61.6909H162.428C163.056 65.1602 166.093 67.8013 169.74 67.8013C173.84 67.8013 177.176 64.4634 177.176 60.3647C177.176 56.2634 173.84 52.9281 169.74 52.9281C166.142 52.9281 163.131 55.5001 162.45 58.9017H152.538L148.869 62.5718H140.033V52.7074H147.872L158.346 41.785C159.612 42.7761 161.198 43.374 162.926 43.374C167.026 43.374 170.362 40.0372 170.362 35.9374C170.362 31.8361 167.026 28.5009 162.926 28.5009C158.825 28.5009 155.488 31.8363 155.488 35.9374C155.488 37.3015 155.864 38.5746 156.508 39.6741L146.685 49.9186H139.912C139.325 46.9129 136.68 44.6419 133.503 44.6419H88.2529C85.073 44.6419 82.4289 46.9128 81.8404 49.9186H75.0673L65.2448 39.6741C65.8889 38.5745 66.2631 37.3 66.2631 35.9374C66.2631 31.8361 62.926 28.5009 58.8256 28.5009C54.7252 28.5009 51.3895 31.8361 51.3895 35.9374C51.3895 40.0388 54.7254 43.374 58.8256 43.374C60.553 43.374 62.1408 42.7761 63.4045 41.785L73.8793 52.7074H81.7181V62.5718H72.8827L69.2122 58.9017H59.3001C58.6194 55.5001 55.6091 52.9281 52.0091 52.9281C47.9073 52.9281 44.5716 56.2636 44.5716 60.3647C44.5716 64.4633 47.9089 67.8013 52.0091 67.8013C55.6564 67.8013 58.6924 65.1604 59.3203 61.6909H68.0581L71.7272 65.3595H81.7164L81.7136 75.8827H73.8707C73.216 72.4472 70.1947 69.84 66.5704 69.84C62.4699 69.84 59.1329 73.1755 59.1329 77.2766C59.1329 81.3766 62.4701 84.7132 66.5704 84.7132C70.1947 84.7132 73.2172 82.106 73.8707 78.6705H81.715V89.0187H71.7258L68.0567 92.6888H59.3189C58.6913 89.2195 55.6554 86.5784 52.0078 86.5784C47.906 86.5784 44.5703 89.9152 44.5703 94.015C44.5703 98.1136 47.9076 101.452 52.0078 101.452C55.6078 101.452 58.6181 98.8796 59.2988 95.4779H69.2109L72.8814 91.8093H81.7168V101.674H73.878L63.4032 112.596C62.1396 111.605 60.5518 111.007 58.8243 111.007C54.7238 111.007 51.3882 114.342 51.3882 118.442C51.3882 122.544 54.7238 125.879 58.8243 125.879C62.9248 125.879 66.2618 122.542 66.2618 118.442C66.2618 117.08 65.8862 115.805 65.2434 114.706L75.066 104.462H81.8391C82.4278 107.47 85.0718 109.739 88.2515 109.739L133.506 109.738C136.683 109.738 139.327 107.468 139.915 104.461H146.688L156.511 114.704C155.867 115.804 155.491 117.078 155.491 118.441C155.491 122.542 158.828 125.877 162.929 125.877C167.029 125.877 170.365 122.541 170.365 118.441C170.365 114.341 167.029 111.006 162.929 111.006C161.201 111.006 159.614 111.604 158.348 112.595L147.875 101.672H140.036V91.8079H148.872L152.541 95.4766H162.453C163.132 98.8783 166.144 101.45 169.742 101.45C173.843 101.45 177.179 98.1136 177.179 94.0136C177.179 89.9136 173.843 86.577 169.742 86.577C166.095 86.577 163.059 89.2179 162.431 92.6874H153.693L150.024 89.0174H140.034V78.6691H147.878C148.532 82.1047 151.555 84.7118 155.178 84.7118C159.279 84.7118 162.615 81.3752 162.615 77.2752C162.615 73.1753 159.279 69.8387 155.178 69.8387ZM66.5713 72.6281C64.0085 72.6281 61.9229 74.7147 61.9229 77.2773C61.9229 79.8411 64.0084 81.9251 66.5713 81.9251C69.134 81.9251 71.2196 79.8399 71.2196 77.2773C71.2196 74.7149 69.1342 72.6281 66.5713 72.6281ZM47.3607 60.3643C47.3607 57.8017 49.4463 55.7165 52.009 55.7165C54.5719 55.7165 56.6574 57.8018 56.6574 60.3643C56.6574 62.9268 54.5718 65.012 52.009 65.012C49.4461 65.012 47.3607 62.9267 47.3607 60.3643ZM52.009 89.3697C49.4463 89.3697 47.3607 91.4562 47.3607 94.0188C47.3607 96.5826 49.4461 98.6666 52.009 98.6666C54.5718 98.6666 56.6574 96.5828 56.6574 94.0188C56.6574 91.4549 54.5719 89.3697 52.009 89.3697ZM167.573 35.9378C167.573 38.5004 165.487 40.5856 162.925 40.5856C160.362 40.5856 158.276 38.5002 158.276 35.9378C158.276 33.3738 160.362 31.2886 162.925 31.2886C165.487 31.2886 167.573 33.374 167.573 35.9378ZM58.8234 31.2873C56.2606 31.2873 54.175 33.3725 54.175 35.9365C54.175 38.4989 56.2605 40.5842 58.8234 40.5842C61.3861 40.5842 63.4717 38.499 63.4717 35.9365C63.4717 33.3727 61.3862 31.2873 58.8234 31.2873ZM174.387 60.3636C174.387 62.9261 172.302 65.0114 169.739 65.0114C167.176 65.0114 165.092 62.926 165.091 60.3636C165.091 57.801 167.176 55.7158 169.739 55.7158C172.302 55.7158 174.387 57.7998 174.387 60.3636ZM58.8234 113.799C56.2606 113.799 54.175 115.883 54.175 118.445C54.175 121.009 56.2605 123.093 58.8234 123.093C61.3861 123.093 63.4717 121.008 63.4717 118.445C63.4717 115.881 61.3862 113.799 58.8234 113.799ZM155.177 81.9264C157.739 81.9264 159.825 79.8413 159.825 77.2787C159.825 74.7162 157.74 72.6295 155.177 72.6295C152.614 72.6295 150.528 74.7161 150.528 77.2787C150.528 79.8425 152.614 81.9264 155.177 81.9264ZM174.387 94.0168C174.387 96.5807 172.302 98.6646 169.739 98.6646C167.176 98.6646 165.092 96.5806 165.091 94.0168C165.091 91.4542 167.176 89.3676 169.739 89.3676C172.302 89.3676 174.387 91.4544 174.387 94.0168ZM162.925 123.09C165.487 123.09 167.573 121.005 167.573 118.443C167.573 115.88 165.487 113.796 162.925 113.796C160.362 113.796 158.276 115.88 158.276 118.443C158.276 121.005 160.362 123.09 162.925 123.09Z" fill="white" stroke="#ED1E40" stroke-width="2.15034" mask="url(#path-4-inside-1_799_128)"/>
<path d="M95.2067 90.9363C93.2551 90.9363 91.6758 89.3537 91.6758 87.4054V67.2619C91.6758 65.3104 93.2584 63.731 95.2067 63.731C97.1583 63.731 98.7376 65.3136 98.7376 67.2619V87.4054C98.7409 89.3537 97.1583 90.9363 95.2067 90.9363Z" fill="#ED1E40"/>
<path d="M105.89 85.9324C103.939 85.9324 102.359 84.3498 102.359 82.4014V71.4721C102.359 69.5205 103.942 67.9412 105.89 67.9412C107.842 67.9412 109.421 69.5238 109.421 71.4721V82.4014C109.424 84.3498 107.842 85.9324 105.89 85.9324Z" fill="#ED1E40"/>
<path d="M123.693 85.4563C122.004 86.4305 119.842 85.8544 118.868 84.1618L112.677 73.4363C111.703 71.7469 112.279 69.585 113.971 68.6108C115.661 67.6366 117.823 68.2127 118.797 69.9054L124.988 80.6308C125.962 82.3202 125.383 84.4822 123.693 85.4563Z" fill="#8A1E37"/>
<path d="M120.167 85.4563C121.856 86.4305 124.018 85.8544 124.992 84.1618L131.184 73.4363C132.158 71.7469 131.582 69.585 129.889 68.6108C128.2 67.6366 126.038 68.2127 125.064 69.9054L118.872 80.6308C117.898 82.3202 118.477 84.4822 120.167 85.4563Z" fill="#ED1E40"/>
</svg>
