<svg width="1570" height="285" viewBox="0 0 1570 285" fill="none" xmlns="http://www.w3.org/2000/svg">
<rect width="1570" height="285" fill="#ED1E40"/>
<path d="M371.72 173.1V152.04H413.97V135.66H371.72V115.9H419.56V99H350.79V190H421.25V173.1H371.72ZM500.667 99V154.25L455.427 99H438.007V190H458.807V134.75L504.177 190H521.467V99H500.667ZM586.547 191.56C602.407 191.56 615.537 185.84 624.117 175.31L610.597 162.83C604.487 169.98 596.817 173.62 587.717 173.62C570.687 173.62 558.597 161.66 558.597 144.5C558.597 127.34 570.687 115.38 587.717 115.38C596.817 115.38 604.487 119.02 610.597 126.04L624.117 113.56C615.537 103.16 602.407 97.44 586.677 97.44C558.337 97.44 537.277 117.07 537.277 144.5C537.277 171.93 558.337 191.56 586.547 191.56ZM718.939 190L698.529 160.75C710.359 155.68 717.249 145.67 717.249 132.02C717.249 111.61 702.039 99 677.729 99H638.339V190H659.399V164.65H677.729H678.769L696.319 190H718.939ZM695.929 132.02C695.929 141.9 689.429 147.88 676.559 147.88H659.399V116.16H676.559C689.429 116.16 695.929 122.01 695.929 132.02ZM811.705 99H791.035L766.725 139.43L742.415 99H720.055L755.285 157.5V190H776.345V157.76L811.705 99ZM859.018 99H819.628V190H840.688V164.91H859.018C883.328 164.91 898.538 152.3 898.538 132.02C898.538 111.61 883.328 99 859.018 99ZM857.848 147.75H840.688V116.16H857.848C870.718 116.16 877.218 122.01 877.218 132.02C877.218 141.9 870.718 147.75 857.848 147.75ZM929.884 190H950.944V116.16H980.064V99H900.764V116.16H929.884V190ZM991.395 190H1012.46V99H991.395V190ZM1096.71 99V154.25L1051.47 99H1034.05V190H1054.85V134.75L1100.22 190H1117.51V99H1096.71ZM1200.53 169.72C1195.2 172.58 1189.87 173.62 1184.15 173.62C1166.73 173.62 1154.64 161.53 1154.64 144.5C1154.64 127.21 1166.73 115.38 1184.41 115.38C1193.64 115.38 1201.31 118.63 1207.94 125.65L1221.46 113.17C1212.62 102.9 1199.36 97.44 1183.37 97.44C1154.38 97.44 1133.32 117.07 1133.32 144.5C1133.32 171.93 1154.38 191.56 1182.98 191.56C1195.98 191.56 1209.76 187.53 1219.77 179.99V143.07H1200.53V169.72Z" fill="white"/>
</svg>
