                <svg width="95vw" height="339" viewBox="0 0 1677 339" fill="none" xmlns="http://www.w3.org/2000/svg">
                    <g clip-path="url(#clip0_386_350)">
                        <path
                            d="M178.622 115.031H63.2383C61.3895 115.031 57.9763 115.222 54.2313 117.031C53.378 117.46 49.9649 119.174 46.9784 122.888C42.5697 128.363 42.1431 134.457 42.0957 136.743H40.6261V0H0V266.629H40.5787V149.693H178.622V266.629H219.201V0H178.622V115.031Z"
                            fill="white" />
                        <path
                            d="M380.377 113.508L365.208 155.407C354.589 183.355 346.009 207.447 339.419 227.778L333.209 244.251L331.171 242.966C338.282 224.683 323.823 185.974 323.823 185.974L324.724 188.45C319.035 171.357 312.162 151.265 304.15 127.982L299.599 114.651L284.43 70.0854H242.334L315.907 265.867L312.873 272.724C308.843 281.865 304.766 288.769 300.737 293.483C296.708 298.196 291.967 301.434 286.515 303.196C281.064 304.957 273.669 305.862 264.33 305.862C258.499 305.862 253.948 305.719 250.677 305.481V338.619C253.711 338.857 258.262 339 264.33 339C281.254 339 295.238 336.953 306.236 332.906C317.234 328.859 326.762 321.86 334.869 311.956C342.975 302.053 350.654 288.102 358.002 270.057L436.884 70.0854H395.547L380.377 113.508Z"
                            fill="white" />
                        <path
                            d="M614.938 76.9415C601.902 68.3237 586.827 63.991 569.619 63.991C552.411 63.991 537.241 69.5616 524.11 80.7505C510.979 91.9394 502.351 105.271 497.563 121.697H496.046L494.529 70.0854H457.743V336.715H496.046V215.398H497.563C503.536 232.063 510.979 245.156 524.11 256.345C537.241 267.534 552.411 273.104 569.619 273.104C586.827 273.104 601.902 268.772 614.938 260.154C627.975 251.536 638.119 239.347 645.467 223.588C652.815 207.828 656.465 189.545 656.465 168.738C656.465 147.932 652.815 129.553 645.467 113.698C638.119 97.8434 627.975 85.5594 614.938 76.9415ZM601.096 222.254C589.956 235.586 575.165 242.252 556.725 242.252C544.826 242.252 534.302 239.443 525.058 233.872C515.814 228.301 508.704 220.683 503.631 211.018C498.559 201.353 496.046 190.687 496.046 179.022V158.073C496.046 146.646 498.559 136.124 503.631 126.458C508.704 116.793 515.814 109.127 525.058 103.414C534.302 97.7005 544.826 94.8438 556.725 94.8438C575.165 94.8438 589.956 101.51 601.096 114.841C612.236 128.172 617.783 146.122 617.783 168.738C617.783 191.354 612.236 208.923 601.096 222.254Z"
                            fill="white" />
                        <path
                            d="M828.64 76.7511C814.229 68.2285 797.685 63.991 778.96 63.991C760.235 63.991 742.315 68.1332 727.383 76.3702C712.45 84.6071 700.978 96.5578 692.872 112.175C684.766 127.792 680.736 146.265 680.736 167.595C680.736 201.638 689.696 227.635 707.662 245.68C725.629 263.725 749.9 272.724 780.476 272.724C795.883 272.724 810.247 269.676 823.52 263.582C836.794 257.488 847.744 248.775 856.325 237.49C864.905 226.206 870.119 213.065 871.873 198.067H835.466C832.669 210.78 826.412 221.159 816.694 229.301C806.976 237.443 794.888 241.49 780.476 241.49C762.273 241.49 747.435 235.634 735.916 223.969C724.396 212.303 718.518 196.02 718.281 175.213H873.77V160.358C873.77 142.313 869.835 126.03 862.013 111.413C854.191 96.7959 843.051 85.2737 828.64 76.7511ZM718.281 151.217C719.561 133.457 725.534 119.65 736.295 109.889C747.056 100.129 760.756 95.2247 777.443 95.2247C794.129 95.2247 807.971 100.224 818.211 110.27C828.45 120.316 834.186 133.934 835.466 151.217H718.281Z"
                            fill="white" />
                        <path
                            d="M953.315 113.936C949.143 124.268 947.816 133.553 947.342 139.98H945.825L944.308 70.0853H907.521V266.629H945.825V192.735C946.062 171.166 948.906 153.931 954.358 141.123C959.809 128.315 968.579 118.65 980.715 112.175C992.85 105.699 1009.16 101.843 1029.64 100.557V67.0382C1023.19 66.2764 999.013 64.229 977.823 80.2268C962.416 91.7966 956.017 107.271 953.315 113.936Z"
                            fill="white" />
                        <path
                            d="M1101.41 256.155H1099.42V0H1058.84V266.629H1235.94V231.967H1123.97C1102.17 231.967 1101.41 256.155 1101.41 256.155Z"
                            fill="white" />
                        <path
                            d="M1348.2 63.991C1328.48 63.991 1311.41 67.6571 1297 75.037C1282.59 82.417 1271.59 92.3679 1264.01 104.938C1256.42 117.507 1252.49 131.267 1252.25 146.265H1290.55C1292.07 131.553 1297.57 119.364 1307.05 109.699C1316.53 100.034 1330.14 95.2247 1347.82 95.2247C1365.5 95.2247 1378.54 98.9861 1386.88 106.461C1395.22 113.936 1399.4 122.507 1399.4 132.172C1399.4 140.79 1396.93 147.265 1392 151.598C1387.07 155.93 1379.72 158.692 1370 159.977C1360.29 161.263 1346.82 161.739 1329.62 161.501C1303.83 161.263 1284.34 166.119 1271.21 176.166C1258.08 186.212 1251.49 200.21 1251.49 218.255C1251.49 236.3 1257.56 249.251 1269.7 258.63C1281.83 268.01 1298 272.724 1318.24 272.724C1338.48 272.724 1356.73 266.962 1371.52 255.393C1386.31 243.823 1395.89 224.635 1397.5 207.399H1399.4L1400.91 266.629H1437.32V139.79C1437.32 117.46 1430.11 99.2241 1415.7 85.1309C1401.29 71.0376 1378.77 63.991 1348.2 63.991ZM1399.4 180.546C1399.4 190.973 1396.41 200.972 1390.48 210.637C1384.56 220.302 1376.26 228.206 1365.64 234.443C1355.02 240.68 1343.03 243.775 1329.62 243.775C1316.2 243.775 1307.1 241.157 1300.79 235.967C1294.49 230.777 1291.31 223.445 1291.31 214.065C1291.31 205.447 1294.35 198.496 1300.41 193.306C1306.48 188.116 1314.68 185.26 1325.06 184.736C1343.51 183.974 1357.68 182.403 1367.54 179.975C1377.4 177.546 1384.56 174.071 1388.97 169.5C1393.38 164.929 1396.41 160.073 1397.5 155.597H1399.4V180.546Z"
                            fill="white" />
                        <path
                            d="M1666 113.698C1658.65 97.8434 1648.51 85.5594 1635.47 76.9416C1622.44 68.3237 1607.36 63.991 1590.15 63.991C1572.95 63.991 1557.78 69.5617 1544.65 80.7506C1531.51 91.9395 1523.41 106.414 1518.1 121.697H1516.58V0H1478.28V266.629H1515.06L1516.58 215.398H1518.1C1522.55 231.396 1531.51 245.156 1544.65 256.345C1557.78 267.534 1572.95 273.105 1590.15 273.105C1607.36 273.105 1622.44 268.772 1635.47 260.154C1648.51 251.536 1658.65 239.347 1666 223.588C1673.35 207.828 1677 189.545 1677 168.738C1677 147.932 1673.35 129.553 1666 113.698ZM1621.63 222.255C1610.49 235.586 1595.7 242.252 1577.26 242.252C1565.36 242.252 1554.84 239.443 1545.59 233.872C1536.35 228.301 1529.24 220.683 1524.17 211.018C1519.09 201.353 1516.58 190.688 1516.58 179.022V158.073C1516.58 146.646 1519.09 136.124 1524.17 126.458C1529.24 116.793 1536.35 109.128 1545.59 103.414C1554.84 97.7006 1565.36 94.8438 1577.26 94.8438C1595.7 94.8438 1610.49 101.51 1621.63 114.841C1632.77 128.172 1638.32 146.122 1638.32 168.738C1638.32 191.354 1632.77 208.923 1621.63 222.255Z"
                            fill="white" />
                    </g>
                    <defs>
                        <clipPath id="clip0_386_350">
                            <rect width="1677" height="339" fill="white" />
                        </clipPath>
                    </defs>
                </svg>