<svg width="150" height="150" viewBox="0 0 150 150" fill="none" xmlns="http://www.w3.org/2000/svg">
<path d="M83.6001 111.285C82.0676 111.287 80.5968 110.681 79.5125 109.599C78.4279 108.516 77.8184 107.046 77.8184 105.514V58.0056C77.8184 57.3821 78.324 56.8765 78.9475 56.8765C79.571 56.8765 80.0766 57.3821 80.0766 58.0056C80.0777 61.0074 80.8849 63.9534 82.4147 66.5362C83.9445 69.1186 86.1401 71.2429 88.7722 72.686C89.1306 72.8874 89.3513 73.2682 89.348 73.6796V105.513C89.3507 107.041 88.7471 108.507 87.6694 109.589C86.5911 110.671 85.1272 111.281 83.6001 111.284V111.285H83.6001ZM80.0429 66.9949V105.513C79.9883 106.478 80.3332 107.422 80.9964 108.124C81.66 108.827 82.5834 109.225 83.5492 109.225C84.515 109.225 85.4384 108.827 86.1021 108.124C86.7652 107.422 87.1101 106.478 87.0555 105.513V74.3338C84.0961 72.5678 81.6723 70.0304 80.0428 66.994L80.0429 66.9949V66.9949Z" fill="white"/>
<path d="M96.7902 77.0116C90.8719 77.0202 85.2878 74.2719 81.6846 69.5774C78.0814 64.8826 76.8708 58.7772 78.4102 53.0622C79.9491 47.3479 84.0629 42.6766 89.5366 40.4268C95.0103 38.1771 101.219 38.6057 106.333 41.586C108.073 42.6257 109.138 44.5052 109.133 46.5321V69.5017C109.142 71.5302 108.077 73.4114 106.333 74.4478C103.434 76.1298 100.142 77.0141 96.7905 77.0114L96.7902 77.0116V77.0116ZM96.7902 41.2702C96.1565 41.2696 95.5234 41.3034 94.893 41.3719C91.1381 41.7999 87.6377 43.4819 84.9573 46.1455C82.277 48.8098 80.5731 52.3001 80.1226 56.0522C79.5538 60.8044 81.0648 65.5711 84.2669 69.1288C87.4411 72.7036 91.9872 74.7568 96.7677 74.775C99.7191 74.7825 102.62 74.0032 105.169 72.5167C105.695 72.2093 106.129 71.7684 106.429 71.2392C106.728 70.7095 106.882 70.1101 106.875 69.5016V46.5319C106.886 45.3063 106.251 44.1648 105.203 43.528C102.65 42.0395 99.746 41.2596 96.7903 41.2697L96.7902 41.2702V41.2702Z" fill="white"/>
<path d="M65.5894 111.285C64.0585 111.285 62.5909 110.677 61.5088 109.595C60.4263 108.513 59.8184 107.045 59.8184 105.514V73.6806C59.8173 73.2671 60.0428 72.8857 60.406 72.687C63.0344 71.2407 65.2262 69.1153 66.7539 66.5335C68.281 63.9512 69.0877 61.0067 69.0898 58.0066C69.0898 57.3831 69.5954 56.8774 70.2189 56.8774C70.8429 56.8774 71.3486 57.3831 71.3486 58.0066V105.515C71.3486 107.043 70.7417 108.509 69.6624 109.591C68.5825 110.673 67.1175 111.282 65.5894 111.286L65.5894 111.285V111.285ZM62.0772 74.3355V105.515C62.0226 106.48 62.3675 107.424 63.0307 108.126C63.6943 108.828 64.6177 109.226 65.5835 109.226C66.5493 109.226 67.4727 108.828 68.1363 108.126C68.7995 107.424 69.1444 106.48 69.0898 105.515V66.9966C67.4603 70.0332 65.0365 72.5704 62.0771 74.3365L62.0772 74.3355V74.3355Z" fill="white"/>
<path d="M52.3429 77.0112C48.9903 77.0101 45.6982 76.122 42.8004 74.4364C41.0601 73.402 39.9952 71.5256 40 69.5015V46.5318C39.9957 44.505 41.0601 42.6254 42.8004 41.5858C47.9104 38.6221 54.1083 38.2048 59.5693 40.4566C65.0307 42.7079 69.1337 47.3724 70.6699 53.0763C72.2061 58.7804 71.0015 64.8744 67.4101 69.5642C63.8186 74.2539 58.2495 77.0063 52.3428 77.0107V77.0112H52.3429ZM43.9412 43.5281C42.886 44.1591 42.2449 45.3027 42.2583 46.532V69.5017C42.2471 70.7272 42.8877 71.8671 43.9412 72.4943C46.4915 73.9791 49.3914 74.7585 52.3429 74.7526C57.1234 74.7344 61.6695 72.6808 64.8437 69.1063C68.0458 65.5487 69.5568 60.7819 68.988 56.0298C68.3281 50.4264 64.8892 45.5333 59.8414 43.0142C54.793 40.4945 48.8157 40.6879 43.9418 43.5284L43.9412 43.5281V43.5281Z" fill="white"/>
<path d="M93.4583 59.1352H86.0842C85.4607 59.1352 84.9551 58.6296 84.9551 58.0061C84.9551 57.3826 85.4607 56.877 86.0842 56.877H93.4583C94.0818 56.877 94.5875 57.3826 94.5875 58.0061C94.5875 58.6296 94.0818 59.1352 93.4583 59.1352Z" fill="white"/>
<path d="M63.0482 59.1352H55.6741C55.0506 59.1352 54.5449 58.6296 54.5449 58.0061C54.5449 57.3826 55.0506 56.877 55.6741 56.877H63.0482C63.6717 56.877 64.1773 57.3826 64.1773 58.0061C64.1773 58.6296 63.6717 59.1352 63.0482 59.1352Z" fill="white"/>
</svg>
