<svg width="150" height="150" viewBox="0 0 150 150" fill="none" xmlns="http://www.w3.org/2000/svg">
<path d="M115.863 66.8085C114.832 63.2475 111.928 60.6237 107.43 59.1243C104.15 58.0935 100.964 58 100.121 58H97.3097C95.8102 58 94.3108 58 92.7179 58.0935L58.609 58.0941C57.1096 58.0941 55.5167 58.0007 54.0173 58.0007H51.2059C50.3627 58.0007 47.1769 58.0941 43.8968 59.1249C39.4927 60.5302 36.5878 63.1539 35.4637 66.8091C35.3702 66.9967 34.995 67.7465 33.3086 67.9334V72.8056C33.3086 72.8056 34.1518 72.8991 34.7139 73.5553C34.6204 76.6476 34.9015 80.5833 36.1192 84.5189C37.0566 87.6112 40.0549 91.2657 48.7698 91.2657C52.3308 91.2657 55.4233 90.6095 55.7978 90.516C56.641 90.3284 64.6997 88.5478 70.3224 75.9914V76.0849L73.3213 70.3689C73.3213 70.3689 73.1337 69.9002 72.5715 69.3381C72.5715 69.057 72.665 68.7759 72.665 68.4949C72.8526 68.2138 73.6023 67.8386 75.6639 67.8386C77.819 67.8386 78.4753 68.2131 78.6629 68.4949C78.6629 68.7759 78.7563 69.057 78.7563 69.3381C78.1001 69.9002 78.0066 70.3689 78.0066 70.3689L81.0055 76.0849V75.8973C86.5333 88.642 94.6862 90.4225 95.5294 90.6101C95.9039 90.7036 98.9964 91.3599 102.557 91.3599C111.272 91.3599 114.271 87.7053 115.208 84.613C116.426 80.6774 116.707 76.7419 116.613 73.6495C117.175 73.0873 118.019 72.8997 118.019 72.8997V67.9333C116.332 67.7457 115.957 66.9025 115.864 66.8084L115.863 66.8085H115.863ZM69.76 67.4647C69.76 69.3387 69.2914 70.7448 69.2914 70.7448C67.7919 75.1483 65.0748 81.2397 60.3895 84.9876C57.5781 87.2367 55.4231 87.6113 55.4231 87.6113H55.3296C55.3296 87.6113 52.3307 88.2676 48.8637 88.2676C46.3335 88.2676 44.272 87.893 42.679 87.2368C40.805 86.4871 39.5867 85.2686 39.0244 83.5823C36.5883 75.8047 38.2747 68.0269 38.3682 67.5582C40.2421 61.0924 50.0814 60.9048 51.2057 60.9048H58.4206C63.6679 60.9983 65.542 61.3734 66.0106 61.4669C69.384 64.747 69.5715 66.7143 69.6651 67.0896L69.76 67.4647H69.76ZM75.6637 65.4032C75.3826 65.4032 73.5086 65.3097 72.4778 65.7777C72.1033 64.6535 71.3535 63.0606 69.6665 60.9989H81.7542C80.0678 62.9671 79.224 64.5599 78.9429 65.7777C77.8186 65.3097 76.0381 65.4032 75.6635 65.4032H75.6637V65.4032ZM112.396 83.6758C111.834 85.3622 110.71 86.5806 108.742 87.3304C107.149 87.9866 104.994 88.3612 102.557 88.3612C99.0901 88.3612 96.0912 87.7049 96.0912 87.7049H95.9977C95.9977 87.7049 93.7486 87.3304 91.0313 85.0811C86.346 81.239 83.5347 75.2419 82.1294 70.8377C82.1294 70.8377 81.6608 69.4324 81.6608 67.5576V67.3701C81.6608 67.089 81.8483 65.0274 85.3153 61.7474C85.7839 61.6539 87.6579 61.2787 92.9053 61.1852H97.0285V61.0918H100.12C101.245 61.0918 111.084 61.2794 112.958 67.7452C113.146 68.1204 114.832 75.8981 112.396 83.6757L112.396 83.6758V83.6758Z" fill="white"/>
<path d="M41.1681 67.231H31V72.8826H41.1681V67.231Z" fill="white"/>
</svg>
